<svg width="477" height="361" viewBox="0 0 477 361" fill="none" xmlns="http://www.w3.org/2000/svg">
<path d="M422.636 200.748L476.801 262.541L206.741 360.953L212.081 272.459L422.636 200.748Z" fill="white"/>
<path d="M52.6387 189.304L0 250.335L206.74 360.952L212.081 272.458L52.6387 189.304Z" fill="#F1F1F1"/>
<path d="M212.081 272.458L52.6387 189.305L237.256 149.635L422.635 200.748L212.081 272.458Z" fill="#939393"/>
<path d="M363.712 138.372L422.411 201.141L211.898 272.639L218.764 184.908L363.712 138.372Z" fill="#EAEAEA"/>
<path d="M211.899 272.639L218.765 184.908L107.385 131.506L52.5713 189.462L211.899 272.639Z" fill="#BDBDBD"/>
<path d="M218.765 184.908L107.385 131.506L236.311 102.517L363.712 138.372L218.765 184.908Z" fill="#939393"/>
<path d="M223.224 100.81L160.668 72.5837L107.723 131.715L218.647 184.727L223.224 100.81Z" fill="#A7A7A7"/>
<path d="M304.089 76.3982L363.366 138.852L218.646 184.727L223.224 100.81L304.089 76.3982Z" fill="#CBCBCB"/>
<path d="M223.224 100.81L160.668 72.5837L233.142 55.8003L304.089 76.3981L223.224 100.81Z" fill="#939393"/>
<path d="M160.928 72.6702L229.359 0L223.256 100.7L160.928 72.6702Z" fill="#B71726"/>
<path d="M303.673 76.5633L229.359 0L223.256 100.7L303.673 76.5633Z" fill="#E0091D"/>
</svg>
