<svg width="477" height="421" viewBox="0 0 477 421" fill="none" xmlns="http://www.w3.org/2000/svg">
<path d="M422.636 260.748L476.8 322.541L206.741 420.953L212.081 332.459L422.636 260.748Z" fill="white"/>
<path d="M52.6387 249.304L0 310.335L206.74 420.952L212.081 332.458L52.6387 249.304Z" fill="#F1F1F1"/>
<path d="M212.081 332.458L52.6387 249.305L237.256 209.635L422.635 260.748L212.081 332.458Z" fill="#939393"/>
<path d="M363.712 178.372L422.411 241.141L211.898 312.639L218.764 224.908L363.712 178.372Z" fill="#EAEAEA"/>
<path d="M211.899 312.639L218.765 224.908L107.385 171.506L52.5713 229.462L211.899 312.639Z" fill="#BDBDBD"/>
<path d="M218.765 224.908L107.384 171.506L236.311 142.517L363.712 178.372L218.765 224.908Z" fill="#939393"/>
<path d="M223.225 120.81L160.669 92.5837L107.723 151.715L218.647 204.727L223.225 120.81Z" fill="#A7A7A7"/>
<path d="M304.09 96.3982L363.366 158.852L218.647 204.727L223.224 120.81L304.09 96.3982Z" fill="#CBCBCB"/>
<path d="M223.225 120.81L160.668 92.5837L233.142 75.8003L304.09 96.3981L223.225 120.81Z" fill="#939393"/>
<path d="M160.928 72.6702L229.359 0L223.256 100.7L160.928 72.6702Z" fill="#B71726"/>
<path d="M303.673 76.5633L229.359 0L223.256 100.7L303.673 76.5633Z" fill="#E0091D"/>
</svg>
