<svg width="600" height="600" viewBox="0 0 600 600" fill="none" xmlns="http://www.w3.org/2000/svg">
<g clip-path="url(#clip0)">
<g filter="url(#filter0_f)">
<path d="M267.468 525.216L62 418.778L299.911 368L538.804 433.425L267.468 525.216Z" fill="black" fill-opacity="0.15"/>
</g>
<path d="M485 335L538.8 396.541L268.5 495L274 406.5L485 335Z" fill="white"/>
<path d="M114.5 323.5L62 384.335L268.5 495L274 406.5L114.5 323.5Z" fill="#F1F1F1"/>
<path d="M274 406.5L114.5 323.5L299.256 283.635L485 335L274 406.5Z" fill="#939393"/>
<path d="M425.5 252.5L485 315L274 386.5L280 298.5L425.5 252.5Z" fill="#EAEAEA"/>
<path d="M274 386.5L280 298.5L169.385 245.506L114.5 303.5L274 386.5Z" fill="#BDBDBD"/>
<path d="M280 298.5L169.384 245.507L298.311 216.517L425.5 252.5L280 298.5Z" fill="#939393"/>
<path d="M285 195L222.5 166.5L169.5 225.5L280 278.5L285 195Z" fill="#A7A7A7"/>
<path d="M366 170.5L425.5 232.5L280 278.5L285 195L366 170.5Z" fill="#CBCBCB"/>
<path d="M285 195L222.5 166.5L295.142 149.8L366 170.5L285 195Z" fill="#939393"/>
<path d="M222.5 146.5L291.359 74L285 175L222.5 146.5Z" fill="#B71726"/>
<path d="M366 150.5L291.359 74L285 175L366 150.5Z" fill="#E0091D"/>
<g filter="url(#filter1_i)">
<path d="M285.882 469.825L286.483 471.505L283.645 472.52L286.438 480.327L284.443 481.041L281.65 473.234L278.798 474.254L278.197 472.574L285.882 469.825Z" fill="#CACACA"/>
<path d="M289.138 470.504L287.278 471.169L286.673 469.477L288.533 468.811L289.138 470.504ZM287.578 472.006L289.438 471.341L291.948 478.356L290.088 479.022L287.578 472.006Z" fill="#CACACA"/>
<path d="M296.204 475.135C296.633 474.981 296.938 474.691 297.119 474.263C297.298 473.831 297.261 473.261 297.008 472.553C296.77 471.888 296.447 471.432 296.04 471.186C295.637 470.938 295.199 470.898 294.727 471.067C294.083 471.298 293.748 471.759 293.719 472.452C293.706 472.819 293.783 473.239 293.952 473.711C294.098 474.119 294.297 474.457 294.547 474.725C295.008 475.229 295.56 475.365 296.204 475.135ZM293.716 469.621C294.068 469.495 294.394 469.439 294.694 469.453C295.206 469.478 295.688 469.688 296.139 470.083L295.778 469.072L297.56 468.435L299.941 475.09C300.265 475.995 300.357 476.732 300.217 477.3C299.976 478.277 299.113 479.031 297.628 479.562C296.731 479.883 295.937 479.969 295.245 479.82C294.552 479.67 294.051 479.257 293.741 478.579L295.736 477.865C295.864 478.061 296.003 478.186 296.153 478.239C296.41 478.335 296.773 478.3 297.24 478.133C297.901 477.896 298.264 477.517 298.329 476.995C298.374 476.66 298.276 476.158 298.037 475.488L297.875 475.038C297.807 475.401 297.699 475.694 297.551 475.916C297.286 476.326 296.862 476.635 296.278 476.843C295.377 477.166 294.543 477.108 293.777 476.671C293.013 476.228 292.438 475.466 292.051 474.384C291.678 473.341 291.625 472.373 291.891 471.48C292.155 470.581 292.763 469.962 293.716 469.621Z" fill="#CACACA"/>
<path d="M303.083 466.256C303.516 466.101 303.936 466.035 304.341 466.06C304.751 466.082 305.125 466.207 305.463 466.435C305.75 466.628 305.964 466.856 306.107 467.119C306.248 467.379 306.431 467.822 306.655 468.448L308.129 472.567L306.256 473.237L304.729 468.97C304.594 468.592 304.421 468.311 304.209 468.125C303.925 467.859 303.549 467.809 303.081 467.977C302.597 468.15 302.286 468.445 302.149 468.862C302.016 469.273 302.056 469.779 302.271 470.379L303.63 474.177L301.802 474.831L298.419 465.376L300.247 464.722L301.447 468.075C301.567 467.572 301.773 467.179 302.063 466.896C302.357 466.607 302.697 466.394 303.083 466.256Z" fill="#CACACA"/>
<path d="M307.107 466.566L306.64 465.259L307.618 464.909L306.918 462.952L308.733 462.303L309.433 464.26L310.572 463.852L311.04 465.159L309.9 465.566L311.227 469.274C311.33 469.561 311.431 469.728 311.53 469.775C311.627 469.818 311.863 469.772 312.236 469.639C312.292 469.619 312.35 469.598 312.41 469.577C312.472 469.549 312.533 469.523 312.592 469.497L313.082 470.868L312.225 471.211C311.369 471.551 310.723 471.613 310.287 471.396C310.006 471.259 309.787 470.972 309.63 470.535L308.085 466.216L307.107 466.566Z" fill="#CACACA"/>
<path d="M314.969 463.702C314.544 463.854 314.261 464.105 314.121 464.456C313.984 464.805 313.967 465.217 314.07 465.694L316.921 464.674C316.718 464.199 316.438 463.886 316.083 463.732C315.731 463.572 315.36 463.562 314.969 463.702ZM314.428 462.19C315.012 461.981 315.576 461.902 316.122 461.954C316.668 462.005 317.178 462.212 317.652 462.575C318.075 462.893 318.426 463.312 318.704 463.833C318.866 464.137 319.051 464.594 319.259 465.202L314.458 466.92C314.735 467.614 315.133 468.029 315.65 468.163C315.966 468.248 316.302 468.227 316.659 468.1C317.036 467.965 317.305 467.748 317.464 467.449C317.551 467.287 317.607 467.085 317.632 466.844L319.505 466.174C319.607 466.607 319.542 467.107 319.309 467.675C318.952 468.572 318.233 469.214 317.152 469.601C316.259 469.92 315.369 469.914 314.481 469.583C313.593 469.252 312.917 468.439 312.454 467.143C312.019 465.929 311.993 464.888 312.375 464.02C312.761 463.151 313.445 462.541 314.428 462.19Z" fill="#CACACA"/>
<path d="M322.892 459.183C323.618 458.924 324.278 458.903 324.874 459.12C325.472 459.332 325.929 459.878 326.244 460.758L327.934 465.482L326.054 466.154L324.528 461.887C324.396 461.518 324.245 461.252 324.076 461.09C323.766 460.794 323.359 460.737 322.852 460.918C322.23 461.141 321.898 461.557 321.855 462.168C321.834 462.49 321.902 462.868 322.057 463.301L323.415 467.098L321.587 467.752L319.082 460.75L320.852 460.116L321.218 461.14C321.325 460.695 321.456 460.355 321.609 460.121C321.885 459.703 322.313 459.39 322.892 459.183Z" fill="#CACACA"/>
<path d="M328.71 456.347L326.849 457.012L326.244 455.32L328.104 454.654L328.71 456.347ZM327.149 457.849L329.009 457.184L331.519 464.199L329.659 464.865L327.149 457.849Z" fill="#CACACA"/>
<path d="M334.62 454.988C335.345 454.728 336.005 454.707 336.601 454.925C337.199 455.137 337.656 455.682 337.971 456.562L339.661 461.286L337.781 461.959L336.255 457.691C336.123 457.322 335.972 457.057 335.803 456.895C335.494 456.599 335.086 456.541 334.58 456.723C333.957 456.945 333.625 457.362 333.582 457.973C333.562 458.294 333.629 458.672 333.784 459.105L335.143 462.903L333.315 463.557L330.809 456.554L332.579 455.921L332.945 456.944C333.052 456.499 333.183 456.16 333.336 455.926C333.612 455.508 334.04 455.195 334.62 454.988Z" fill="#CACACA"/>
<path d="M343.834 458.095C344.263 457.941 344.568 457.651 344.749 457.223C344.928 456.791 344.891 456.221 344.638 455.513C344.4 454.848 344.077 454.392 343.67 454.146C343.266 453.898 342.829 453.859 342.357 454.027C341.713 454.258 341.377 454.719 341.349 455.412C341.335 455.779 341.413 456.199 341.582 456.671C341.728 457.079 341.926 457.417 342.177 457.685C342.638 458.189 343.19 458.325 343.834 458.095ZM341.346 452.581C341.697 452.455 342.023 452.399 342.324 452.413C342.836 452.438 343.318 452.648 343.769 453.043L343.407 452.033L345.19 451.395L347.571 458.05C347.895 458.955 347.987 459.692 347.846 460.26C347.605 461.237 346.742 461.991 345.258 462.522C344.361 462.843 343.566 462.929 342.874 462.78C342.182 462.63 341.681 462.217 341.37 461.539L343.366 460.825C343.494 461.021 343.633 461.146 343.782 461.199C344.04 461.295 344.402 461.26 344.87 461.093C345.531 460.856 345.894 460.477 345.959 459.955C346.003 459.62 345.906 459.118 345.666 458.448L345.505 457.998C345.437 458.361 345.328 458.654 345.18 458.876C344.915 459.286 344.491 459.595 343.908 459.803C343.007 460.126 342.173 460.068 341.406 459.631C340.643 459.188 340.068 458.426 339.681 457.344C339.308 456.302 339.254 455.333 339.52 454.44C339.785 453.542 340.393 452.922 341.346 452.581Z" fill="#CACACA"/>
<path d="M351.688 445.955L353.213 445.41L353.023 456.506L351.51 457.047L351.688 445.955Z" fill="#CACACA"/>
<path d="M359.693 445.277L361.908 451.469L363.736 450.815C364.671 450.48 365.158 449.785 365.197 448.731C365.218 448.152 365.103 447.513 364.853 446.814C364.507 445.849 364.09 445.163 363.601 444.757C363.115 444.345 362.422 444.301 361.521 444.623L359.693 445.277ZM361.266 442.855C361.857 442.654 362.37 442.547 362.807 442.536C363.55 442.517 364.232 442.726 364.853 443.162C365.352 443.516 365.76 443.946 366.077 444.452C366.394 444.958 366.641 445.46 366.819 445.958C367.27 447.22 367.4 448.379 367.206 449.435C366.942 450.861 366.093 451.83 364.66 452.343L360.573 453.805L357.179 444.318L361.266 442.855Z" fill="#CACACA"/>
<path d="M371.191 441.904C371.226 441.891 371.254 441.884 371.277 441.88C371.303 441.871 371.357 441.854 371.441 441.829L372.113 443.708C371.992 443.737 371.886 443.765 371.795 443.793C371.703 443.821 371.629 443.845 371.574 443.865C370.836 444.129 370.426 444.547 370.345 445.118C370.3 445.439 370.378 445.88 370.579 446.443L371.779 449.796L369.931 450.457L367.422 443.441L369.172 442.815L369.61 444.038C369.726 443.469 369.858 443.061 370.007 442.814C370.247 442.404 370.642 442.1 371.191 441.904Z" fill="#CACACA"/>
<path d="M374.164 440.085L372.303 440.751L371.698 439.058L373.558 438.392L374.164 440.085ZM372.603 441.587L374.463 440.922L376.973 447.938L375.113 448.603L372.603 441.587Z" fill="#CACACA"/>
<path d="M380.629 446.63L378.794 447.286L375.4 437.799L377.235 437.142L380.629 446.63Z" fill="#CACACA"/>
<path d="M384.298 445.317L382.463 445.974L379.069 436.486L380.903 435.83L384.298 445.317Z" fill="#CACACA"/>
<path d="M385.17 436.148L383.31 436.813L382.704 435.12L384.564 434.455L385.17 436.148ZM383.609 437.65L385.469 436.984L387.979 444L386.119 444.666L383.609 437.65Z" fill="#CACACA"/>
<path d="M391.08 434.788C391.805 434.529 392.466 434.508 393.061 434.726C393.66 434.937 394.116 435.483 394.431 436.363L396.121 441.087L394.242 441.76L392.715 437.492C392.583 437.123 392.432 436.858 392.263 436.696C391.954 436.4 391.546 436.342 391.04 436.523C390.418 436.746 390.085 437.163 390.042 437.773C390.022 438.095 390.089 438.473 390.244 438.906L391.603 442.704L389.775 443.358L387.27 436.355L389.04 435.722L389.406 436.745C389.513 436.3 389.643 435.961 389.797 435.727C390.073 435.308 390.501 434.996 391.08 434.788Z" fill="#CACACA"/>
<path d="M400.294 437.895C400.723 437.742 401.028 437.451 401.209 437.024C401.388 436.592 401.351 436.022 401.098 435.314C400.86 434.648 400.537 434.193 400.13 433.947C399.727 433.699 399.289 433.659 398.817 433.828C398.173 434.058 397.837 434.52 397.809 435.212C397.796 435.58 397.873 436 398.042 436.472C398.188 436.88 398.386 437.218 398.637 437.486C399.098 437.989 399.65 438.126 400.294 437.895ZM397.806 432.382C398.158 432.256 398.484 432.2 398.784 432.214C399.296 432.239 399.778 432.449 400.229 432.844L399.868 431.833L401.65 431.195L404.031 437.851C404.355 438.756 404.447 439.493 404.307 440.061C404.066 441.038 403.203 441.792 401.718 442.323C400.821 442.644 400.027 442.73 399.335 442.58C398.642 442.431 398.141 442.018 397.831 441.34L399.826 440.626C399.954 440.822 400.093 440.946 400.243 440.999C400.5 441.096 400.862 441.061 401.33 440.894C401.991 440.657 402.354 440.278 402.419 439.756C402.463 439.421 402.366 438.918 402.127 438.249L401.965 437.798C401.897 438.162 401.789 438.455 401.641 438.677C401.376 439.086 400.952 439.395 400.368 439.604C399.467 439.927 398.633 439.869 397.867 439.432C397.103 438.989 396.528 438.226 396.141 437.145C395.768 436.102 395.715 435.134 395.981 434.24C396.245 433.342 396.853 432.723 397.806 432.382Z" fill="#CACACA"/>
<path d="M408.148 425.756L409.674 425.21L409.483 436.307L407.971 436.848L408.148 425.756Z" fill="#CACACA"/>
<path d="M419.927 421.869L422.779 420.849L426.173 430.336L424.326 430.997L422.03 424.58C421.964 424.395 421.874 424.137 421.76 423.805C421.645 423.469 421.555 423.211 421.49 423.03L422.543 431.635L420.618 432.323L415.987 424.999C416.051 425.179 416.146 425.436 416.27 425.769C416.392 426.098 416.487 426.355 416.553 426.539L418.848 432.956L417.001 433.617L413.607 424.13L416.49 423.098L420.884 429.941L419.927 421.869Z" fill="#CACACA"/>
<path d="M428.598 423.05C428.173 423.202 427.89 423.454 427.749 423.804C427.613 424.153 427.596 424.566 427.699 425.042L430.55 424.022C430.346 423.548 430.067 423.234 429.712 423.08C429.36 422.921 428.988 422.911 428.598 423.05ZM428.057 421.538C428.64 421.329 429.205 421.25 429.751 421.302C430.297 421.353 430.807 421.561 431.28 421.924C431.704 422.242 432.055 422.661 432.333 423.181C432.495 423.486 432.68 423.942 432.888 424.55L428.086 426.268C428.364 426.963 428.761 427.377 429.279 427.511C429.595 427.597 429.931 427.576 430.287 427.448C430.665 427.313 430.933 427.096 431.093 426.797C431.18 426.635 431.236 426.434 431.261 426.192L433.134 425.522C433.236 425.955 433.17 426.456 432.938 427.023C432.581 427.92 431.862 428.562 430.781 428.949C429.888 429.268 428.998 429.262 428.11 428.931C427.222 428.601 426.546 427.787 426.083 426.491C425.648 425.277 425.622 424.236 426.004 423.369C426.39 422.5 427.074 421.889 428.057 421.538Z" fill="#CACACA"/>
<path d="M437.851 422.31C437.761 422.424 437.665 422.527 437.562 422.617C437.461 422.701 437.315 422.8 437.123 422.912L436.738 423.136C436.377 423.343 436.13 423.526 435.998 423.685C435.775 423.953 435.726 424.263 435.852 424.615C435.964 424.929 436.131 425.125 436.353 425.205C436.578 425.28 436.815 425.273 437.064 425.183C437.459 425.042 437.78 424.797 438.028 424.447C438.279 424.095 438.302 423.61 438.095 422.992L437.851 422.31ZM436.431 421.852C436.755 421.688 436.978 421.548 437.101 421.431C437.323 421.226 437.392 421.005 437.307 420.769C437.204 420.482 437.033 420.321 436.793 420.285C436.556 420.245 436.244 420.293 435.858 420.431C435.424 420.586 435.156 420.803 435.052 421.082C434.98 421.287 434.971 421.532 435.025 421.818L433.255 422.451C433.074 421.824 433.066 421.258 433.229 420.755C433.493 419.963 434.215 419.356 435.395 418.934C436.163 418.66 436.9 418.568 437.605 418.659C438.31 418.75 438.814 419.219 439.117 420.064L440.268 423.282C440.348 423.505 440.449 423.774 440.571 424.089C440.67 424.324 440.765 424.474 440.856 424.539C440.946 424.603 441.062 424.641 441.202 424.654L441.299 424.925L439.303 425.638C439.197 425.517 439.111 425.398 439.045 425.281C438.979 425.164 438.911 425.029 438.841 424.874C438.686 425.24 438.478 425.578 438.217 425.889C437.903 426.258 437.498 426.531 437 426.709C436.365 426.936 435.775 426.944 435.23 426.733C434.687 426.515 434.297 426.074 434.059 425.409C433.751 424.547 433.86 423.803 434.387 423.179C434.676 422.838 435.159 422.496 435.835 422.153L436.431 421.852Z" fill="#CACACA"/>
<path d="M443.168 421.729C443.324 422.041 443.49 422.243 443.668 422.334C443.983 422.498 444.447 422.469 445.061 422.25C445.421 422.121 445.687 421.965 445.859 421.783C446.036 421.599 446.085 421.399 446.008 421.185C445.935 420.979 445.793 420.853 445.583 420.807C445.373 420.761 444.67 420.805 443.473 420.938C442.609 421.024 441.961 420.978 441.529 420.798C441.098 420.623 440.785 420.261 440.588 419.712C440.356 419.064 440.411 418.418 440.751 417.773C441.094 417.123 441.727 416.632 442.65 416.302C443.525 415.989 444.301 415.91 444.976 416.066C445.654 416.215 446.187 416.704 446.575 417.534L444.741 418.19C444.631 417.963 444.497 417.8 444.341 417.701C444.05 417.524 443.663 417.523 443.178 417.696C442.779 417.839 442.516 418.003 442.388 418.189C442.266 418.374 442.234 418.549 442.294 418.717C442.369 418.927 442.514 419.047 442.728 419.077C442.943 419.111 443.641 419.053 444.821 418.902C445.612 418.812 446.252 418.876 446.741 419.093C447.228 419.316 447.565 419.691 447.754 420.219C448.003 420.914 447.946 421.576 447.585 422.204C447.227 422.825 446.507 423.33 445.426 423.717C444.323 424.111 443.425 424.171 442.731 423.897C442.04 423.616 441.566 423.115 441.308 422.395L443.168 421.729Z" fill="#CACACA"/>
<path d="M449.196 414.185L450.709 418.414C450.852 418.813 451.007 419.097 451.173 419.265C451.468 419.561 451.86 419.621 452.349 419.446C452.976 419.222 453.314 418.816 453.365 418.226C453.387 417.909 453.317 417.525 453.156 417.074L451.79 413.257L453.65 412.592L456.16 419.608L454.377 420.245L454.023 419.254C454.013 419.282 453.993 419.362 453.963 419.493C453.933 419.625 453.885 419.749 453.82 419.864C453.624 420.224 453.409 420.5 453.172 420.691C452.94 420.881 452.643 421.04 452.283 421.169C451.245 421.541 450.412 421.417 449.784 420.8C449.435 420.46 449.117 419.889 448.83 419.087L447.317 414.858L449.196 414.185Z" fill="#CACACA"/>
<path d="M459.177 410.426C459.212 410.414 459.24 410.406 459.263 410.402C459.289 410.393 459.343 410.376 459.427 410.351L460.099 412.231C459.978 412.259 459.872 412.287 459.781 412.315C459.689 412.343 459.615 412.367 459.56 412.387C458.822 412.651 458.412 413.069 458.331 413.64C458.286 413.961 458.364 414.403 458.565 414.965L459.765 418.318L457.917 418.979L455.408 411.963L457.158 411.337L457.596 412.56C457.712 411.991 457.844 411.583 457.993 411.336C458.233 410.926 458.628 410.622 459.177 410.426Z" fill="#CACACA"/>
<path d="M462.15 408.607L460.289 409.273L459.684 407.58L461.544 406.915L462.15 408.607ZM460.589 410.11L462.449 409.444L464.959 416.46L463.099 417.125L460.589 410.11Z" fill="#CACACA"/>
<path d="M468.06 407.248C468.785 406.989 469.445 406.968 470.041 407.185C470.639 407.397 471.096 407.943 471.411 408.823L473.101 413.547L471.222 414.219L469.695 409.952C469.563 409.583 469.412 409.317 469.243 409.155C468.934 408.859 468.526 408.802 468.02 408.983C467.397 409.206 467.065 409.622 467.022 410.233C467.002 410.555 467.069 410.933 467.224 411.366L468.583 415.163L466.755 415.817L464.249 408.815L466.019 408.181L466.385 409.205C466.493 408.76 466.623 408.42 466.776 408.186C467.053 407.768 467.48 407.455 468.06 407.248Z" fill="#CACACA"/>
<path d="M477.274 410.355C477.703 410.202 478.008 409.911 478.189 409.483C478.368 409.051 478.331 408.481 478.078 407.773C477.84 407.108 477.517 406.653 477.11 406.406C476.706 406.158 476.269 406.119 475.797 406.288C475.153 406.518 474.817 406.98 474.789 407.672C474.775 408.04 474.853 408.46 475.022 408.932C475.168 409.34 475.366 409.678 475.617 409.946C476.078 410.449 476.63 410.586 477.274 410.355ZM474.786 404.842C475.138 404.716 475.464 404.66 475.764 404.673C476.276 404.698 476.758 404.908 477.209 405.304L476.847 404.293L478.63 403.655L481.011 410.31C481.335 411.216 481.427 411.953 481.286 412.521C481.045 413.498 480.183 414.252 478.698 414.783C477.801 415.104 477.007 415.189 476.314 415.04C475.622 414.891 475.121 414.477 474.81 413.799L476.806 413.086C476.934 413.282 477.073 413.406 477.222 413.459C477.48 413.556 477.842 413.521 478.31 413.353C478.971 413.117 479.334 412.738 479.399 412.216C479.443 411.881 479.346 411.378 479.106 410.709L478.945 410.258C478.877 410.622 478.768 410.914 478.62 411.137C478.355 411.546 477.931 411.855 477.348 412.064C476.447 412.386 475.613 412.329 474.847 411.892C474.083 411.448 473.508 410.686 473.121 409.605C472.748 408.562 472.694 407.594 472.96 406.7C473.225 405.802 473.833 405.183 474.786 404.842Z" fill="#CACACA"/>
<path d="M487.498 404.352L489.905 403.491L487.385 400.182L487.498 404.352ZM485.508 398.407L487.748 397.605L494.502 405.89L492.352 406.66L491.043 404.928L487.548 406.178L487.589 408.364L485.517 409.105L485.508 398.407Z" fill="#CACACA"/>
<path d="M496.192 402.759C496.347 403.072 496.514 403.274 496.691 403.365C497.006 403.528 497.471 403.5 498.084 403.28C498.445 403.151 498.711 402.996 498.883 402.813C499.059 402.629 499.109 402.43 499.032 402.215C498.958 402.009 498.816 401.883 498.606 401.838C498.396 401.792 497.693 401.835 496.497 401.968C495.632 402.055 494.984 402.008 494.552 401.829C494.121 401.654 493.808 401.291 493.611 400.742C493.38 400.094 493.434 399.448 493.774 398.803C494.118 398.153 494.751 397.663 495.673 397.333C496.549 397.02 497.324 396.941 497.999 397.096C498.677 397.246 499.21 397.735 499.599 398.564L497.764 399.22C497.654 398.993 497.521 398.831 497.364 398.732C497.074 398.555 496.686 398.553 496.201 398.727C495.802 398.869 495.539 399.034 495.412 399.22C495.289 399.404 495.257 399.58 495.317 399.747C495.392 399.957 495.537 400.077 495.751 400.107C495.967 400.142 496.664 400.083 497.845 399.932C498.635 399.843 499.275 399.906 499.765 400.124C500.251 400.346 500.588 400.722 500.777 401.25C501.026 401.945 500.97 402.606 500.609 403.234C500.25 403.856 499.53 404.36 498.449 404.747C497.346 405.142 496.448 405.202 495.755 404.927C495.064 404.646 494.589 404.146 494.332 403.425L496.192 402.759Z" fill="#CACACA"/>
<path d="M503.529 400.134C503.684 400.447 503.851 400.648 504.029 400.74C504.344 400.903 504.808 400.875 505.422 400.655C505.782 400.526 506.048 400.371 506.22 400.188C506.396 400.004 506.446 399.805 506.369 399.59C506.296 399.384 506.154 399.258 505.944 399.212C505.734 399.167 505.031 399.21 503.834 399.343C502.97 399.429 502.321 399.383 501.889 399.204C501.459 399.029 501.145 398.666 500.949 398.117C500.717 397.469 500.771 396.823 501.112 396.178C501.455 395.528 502.088 395.038 503.011 394.708C503.886 394.395 504.661 394.316 505.336 394.471C506.014 394.621 506.548 395.11 506.936 395.939L505.102 396.595C504.992 396.368 504.858 396.205 504.702 396.107C504.411 395.93 504.023 395.928 503.538 396.102C503.139 396.244 502.876 396.409 502.749 396.595C502.626 396.779 502.595 396.955 502.655 397.122C502.73 397.332 502.875 397.452 503.089 397.482C503.304 397.517 504.002 397.458 505.182 397.307C505.973 397.218 506.613 397.281 507.102 397.499C507.588 397.721 507.926 398.097 508.115 398.625C508.363 399.32 508.307 399.981 507.946 400.609C507.588 401.231 506.868 401.735 505.787 402.122C504.684 402.516 503.786 402.576 503.092 402.302C502.401 402.021 501.927 401.521 501.669 400.8L503.529 400.134Z" fill="#CACACA"/>
<path d="M510.971 393.58C510.546 393.732 510.264 393.984 510.123 394.334C509.986 394.683 509.969 395.096 510.072 395.572L512.923 394.552C512.72 394.078 512.441 393.764 512.085 393.61C511.733 393.451 511.362 393.441 510.971 393.58ZM510.43 392.068C511.014 391.859 511.579 391.78 512.125 391.832C512.671 391.883 513.18 392.091 513.654 392.454C514.077 392.772 514.428 393.191 514.706 393.711C514.868 394.016 515.054 394.472 515.261 395.08L510.46 396.798C510.737 397.493 511.135 397.907 511.652 398.041C511.969 398.127 512.305 398.106 512.661 397.978C513.038 397.843 513.307 397.626 513.466 397.327C513.553 397.165 513.61 396.964 513.635 396.722L515.508 396.052C515.609 396.485 515.544 396.986 515.311 397.553C514.954 398.45 514.235 399.092 513.154 399.479C512.262 399.798 511.371 399.792 510.483 399.462C509.595 399.131 508.92 398.317 508.456 397.021C508.022 395.807 507.995 394.766 508.377 393.899C508.763 393.03 509.448 392.419 510.43 392.068Z" fill="#CACACA"/>
<path d="M514.836 392.248L514.369 390.942L515.347 390.592L514.647 388.635L516.462 387.986L517.162 389.943L518.302 389.535L518.769 390.842L517.63 391.249L518.956 394.956C519.059 395.244 519.16 395.411 519.259 395.458C519.356 395.501 519.592 395.455 519.965 395.322C520.021 395.302 520.079 395.281 520.139 395.259C520.202 395.232 520.263 395.205 520.321 395.18L520.812 396.551L519.954 396.894C519.098 397.234 518.452 397.295 518.016 397.079C517.735 396.942 517.516 396.655 517.36 396.217L515.815 391.898L514.836 392.248Z" fill="#CACACA"/>
</g>
<g filter="url(#filter2_i)">
<path d="M288.121 367.082C287.952 366.585 287.7 366.277 287.365 366.155C287.034 366.032 286.633 366.05 286.163 366.211L284.306 366.844L285.263 369.652L287.12 369.019C287.591 368.859 287.916 368.62 288.097 368.303C288.282 367.985 288.29 367.578 288.121 367.082ZM290.09 366.396C290.474 367.522 290.461 368.415 290.05 369.075C289.639 369.735 288.906 370.245 287.849 370.605L285.824 371.295L286.993 374.725L285.013 375.399L281.762 365.862L285.916 364.446C286.873 364.12 287.721 364.105 288.458 364.403C289.195 364.701 289.739 365.365 290.09 366.396ZM295.54 371.811L293.696 372.44L290.445 362.902L292.289 362.274L295.54 371.811ZM300.065 366.441C299.973 366.554 299.875 366.655 299.771 366.743C299.669 366.826 299.521 366.922 299.327 367.032L298.94 367.251C298.575 367.452 298.326 367.631 298.191 367.787C297.964 368.053 297.91 368.362 298.031 368.716C298.138 369.031 298.302 369.23 298.524 369.313C298.747 369.391 298.984 369.387 299.235 369.302C299.632 369.167 299.956 368.926 300.209 368.58C300.466 368.232 300.496 367.748 300.299 367.127L300.065 366.441ZM298.652 365.962C298.978 365.803 299.204 365.666 299.328 365.551C299.553 365.349 299.625 365.13 299.544 364.892C299.446 364.603 299.277 364.439 299.037 364.401C298.801 364.356 298.488 364.4 298.1 364.532C297.664 364.681 297.393 364.894 297.285 365.171C297.21 365.375 297.197 365.62 297.247 365.907L295.467 366.513C295.296 365.883 295.296 365.317 295.467 364.816C295.742 364.029 296.473 363.433 297.66 363.029C298.432 362.765 299.17 362.685 299.874 362.787C300.578 362.889 301.075 363.364 301.364 364.214L302.467 367.449C302.543 367.674 302.64 367.944 302.758 368.26C302.853 368.497 302.946 368.649 303.035 368.714C303.125 368.78 303.24 368.82 303.38 368.835L303.473 369.107L301.467 369.791C301.362 369.668 301.278 369.547 301.214 369.429C301.149 369.312 301.084 369.175 301.016 369.02C300.856 369.383 300.643 369.718 300.377 370.025C300.058 370.389 299.648 370.656 299.148 370.827C298.509 371.044 297.919 371.043 297.377 370.824C296.838 370.598 296.455 370.151 296.227 369.483C295.931 368.615 296.052 367.874 296.588 367.258C296.882 366.921 297.37 366.587 298.051 366.253L298.652 365.962ZM302.062 363.254L301.615 361.94L302.598 361.605L301.928 359.638L303.752 359.016L304.423 360.983L305.568 360.593L306.016 361.906L304.871 362.297L306.141 366.024C306.239 366.313 306.338 366.481 306.436 366.53C306.533 366.574 306.769 366.532 307.144 366.404C307.201 366.385 307.259 366.365 307.319 366.344C307.382 366.318 307.443 366.292 307.502 366.267L307.972 367.646L307.11 367.976C306.249 368.303 305.602 368.355 305.169 368.131C304.89 367.991 304.676 367.7 304.526 367.26L303.046 362.919L302.062 363.254ZM308.451 356.656C308.568 356.617 308.675 356.585 308.773 356.561C308.869 356.533 309.001 356.498 309.17 356.455L309.681 357.956C309.573 357.978 309.396 358.029 309.149 358.109C308.904 358.182 308.754 358.294 308.699 358.442C308.647 358.585 308.644 358.726 308.691 358.864C308.738 359.002 308.806 359.2 308.894 359.459L310.104 359.047L310.547 360.347L309.337 360.76L311.276 366.447L309.438 367.074L307.5 361.386L306.471 361.737L306.028 360.436L307.037 360.092L306.883 359.639C306.625 358.884 306.575 358.321 306.733 357.95C306.856 357.436 307.429 357.005 308.451 356.656ZM316.268 363.294C316.807 363.11 317.156 362.777 317.314 362.295C317.472 361.812 317.43 361.217 317.189 360.51C316.948 359.803 316.618 359.308 316.2 359.027C315.78 358.742 315.3 358.691 314.761 358.875C314.222 359.059 313.871 359.392 313.709 359.876C313.549 360.354 313.59 360.947 313.831 361.655C314.072 362.362 314.403 362.858 314.823 363.144C315.247 363.428 315.728 363.478 316.268 363.294ZM319.124 359.851C319.477 360.886 319.481 361.874 319.137 362.814C318.792 363.75 318.013 364.425 316.801 364.838C315.589 365.251 314.56 365.193 313.715 364.662C312.869 364.128 312.269 363.343 311.916 362.307C311.569 361.289 311.566 360.306 311.907 359.357C312.248 358.408 313.024 357.726 314.236 357.313C315.448 356.9 316.479 356.965 317.329 357.509C318.179 358.052 318.777 358.833 319.124 359.851ZM323.017 354.385C323.051 354.373 323.08 354.366 323.103 354.363C323.129 354.354 323.184 354.338 323.267 354.314L323.911 356.204C323.79 356.23 323.684 356.257 323.592 356.284C323.5 356.31 323.426 356.333 323.37 356.352C322.628 356.605 322.212 357.016 322.122 357.586C322.072 357.907 322.144 358.349 322.336 358.914L323.485 362.285L321.628 362.918L319.224 355.866L320.984 355.266L321.403 356.495C321.528 355.928 321.666 355.522 321.819 355.277C322.065 354.871 322.465 354.573 323.017 354.385ZM332.235 351.258C332.546 351.152 332.873 351.108 333.216 351.126C333.559 351.143 333.905 351.261 334.254 351.48C334.536 351.658 334.773 351.914 334.964 352.249C335.088 352.471 335.228 352.811 335.383 353.268L336.886 357.718L334.996 358.362L333.466 353.871C333.374 353.604 333.256 353.399 333.111 353.256C332.836 352.984 332.478 352.923 332.038 353.073C331.529 353.246 331.249 353.577 331.199 354.066C331.177 354.324 331.219 354.611 331.326 354.926L332.758 359.125L330.901 359.758L329.469 355.559C329.327 355.14 329.18 354.851 329.029 354.69C328.757 354.403 328.395 354.336 327.942 354.49C327.416 354.67 327.12 354.961 327.055 355.363C327.022 355.591 327.071 355.897 327.202 356.281L328.649 360.525L326.779 361.163L324.379 354.123L326.172 353.512L326.522 354.541C326.626 354.096 326.753 353.762 326.902 353.537C327.166 353.139 327.583 352.843 328.152 352.649C328.692 352.465 329.168 352.436 329.581 352.56C329.923 352.688 330.222 352.902 330.478 353.2C330.578 352.703 330.774 352.297 331.066 351.981C331.38 351.657 331.769 351.416 332.235 351.258ZM341.493 347.336L339.624 347.974L339.043 346.272L340.913 345.634L341.493 347.336ZM339.91 348.815L341.78 348.177L344.184 355.23L342.314 355.867L339.91 348.815ZM347.423 346.066C348.152 345.818 348.813 345.807 349.405 346.033C350.001 346.254 350.449 346.807 350.75 347.691L352.369 352.44L350.48 353.084L349.018 348.794C348.891 348.423 348.745 348.155 348.578 347.991C348.273 347.69 347.866 347.627 347.357 347.8C346.732 348.013 346.393 348.425 346.341 349.035C346.316 349.357 346.377 349.735 346.526 350.171L347.827 353.988L345.989 354.615L343.59 347.575L345.369 346.968L345.72 347.997C345.834 347.554 345.969 347.217 346.126 346.985C346.408 346.571 346.841 346.265 347.423 346.066ZM351.418 346.43L350.971 345.117L351.954 344.782L351.284 342.815L353.108 342.193L353.779 344.16L354.924 343.769L355.372 345.083L354.227 345.473L355.497 349.2C355.596 349.489 355.694 349.658 355.792 349.706C355.889 349.75 356.125 349.708 356.5 349.58C356.557 349.561 356.615 349.541 356.675 349.521C356.738 349.494 356.799 349.469 356.858 349.444L357.328 350.822L356.466 351.152C355.605 351.479 354.958 351.531 354.525 351.308C354.246 351.167 354.032 350.877 353.882 350.437L352.402 346.095L351.418 346.43ZM359.323 343.685C358.896 343.831 358.609 344.078 358.463 344.426C358.321 344.773 358.298 345.185 358.394 345.663L361.26 344.686C361.064 344.209 360.789 343.891 360.436 343.732C360.087 343.567 359.715 343.552 359.323 343.685ZM358.804 342.165C359.391 341.965 359.957 341.895 360.502 341.955C361.047 342.014 361.554 342.229 362.022 342.599C362.441 342.924 362.785 343.348 363.055 343.872C363.213 344.179 363.391 344.639 363.59 345.25L358.763 346.895C359.03 347.594 359.421 348.014 359.937 348.156C360.251 348.246 360.588 348.23 360.946 348.108C361.326 347.979 361.597 347.766 361.761 347.469C361.851 347.309 361.91 347.108 361.938 346.867L363.821 346.225C363.916 346.66 363.843 347.159 363.602 347.723C363.232 348.615 362.504 349.246 361.417 349.616C360.519 349.922 359.629 349.903 358.746 349.559C357.864 349.214 357.2 348.391 356.756 347.088C356.34 345.867 356.329 344.826 356.724 343.965C357.123 343.102 357.817 342.502 358.804 342.165ZM368.378 345.293C368.81 345.146 369.119 344.86 369.307 344.435C369.492 344.006 369.464 343.435 369.221 342.724C368.994 342.055 368.678 341.595 368.274 341.342C367.874 341.088 367.437 341.042 366.963 341.204C366.316 341.425 365.973 341.881 365.935 342.573C365.915 342.94 365.987 343.362 366.148 343.836C366.288 344.246 366.481 344.587 366.728 344.859C367.181 345.369 367.731 345.514 368.378 345.293ZM365.974 339.743C366.328 339.622 366.654 339.571 366.954 339.589C367.466 339.622 367.945 339.839 368.39 340.241L368.043 339.225L369.836 338.614L372.116 345.305C372.426 346.215 372.507 346.953 372.358 347.519C372.102 348.492 371.228 349.233 369.736 349.742C368.834 350.049 368.039 350.123 367.349 349.963C366.659 349.803 366.164 349.382 365.864 348.7L367.869 348.016C367.995 348.214 368.132 348.341 368.281 348.396C368.536 348.497 368.899 348.467 369.369 348.306C370.034 348.08 370.402 347.706 370.475 347.186C370.525 346.851 370.435 346.347 370.206 345.674L370.051 345.221C369.977 345.584 369.865 345.875 369.713 346.095C369.442 346.5 369.013 346.803 368.427 347.003C367.521 347.312 366.688 347.242 365.929 346.793C365.172 346.338 364.608 345.567 364.238 344.48C363.88 343.432 363.841 342.463 364.121 341.573C364.398 340.679 365.016 340.069 365.974 339.743ZM375.336 336.551C375.371 336.54 375.4 336.532 375.423 336.529C375.449 336.52 375.503 336.504 375.587 336.481L376.231 338.37C376.11 338.397 376.003 338.423 375.911 338.45C375.819 338.477 375.745 338.499 375.689 338.518C374.947 338.771 374.531 339.183 374.442 339.753C374.392 340.073 374.463 340.516 374.656 341.081L375.805 344.452L373.948 345.085L371.544 338.032L373.304 337.432L373.723 338.661C373.847 338.094 373.986 337.688 374.138 337.444C374.385 337.037 374.784 336.74 375.336 336.551ZM381.85 338.563C381.759 338.676 381.661 338.777 381.556 338.866C381.455 338.949 381.307 339.045 381.113 339.154L380.725 339.373C380.361 339.574 380.111 339.753 379.977 339.91C379.749 340.175 379.696 340.485 379.817 340.838C379.924 341.153 380.088 341.352 380.309 341.436C380.533 341.514 380.77 341.51 381.02 341.425C381.417 341.289 381.742 341.049 381.995 340.702C382.252 340.355 382.282 339.87 382.084 339.249L381.85 338.563ZM380.438 338.084C380.764 337.925 380.989 337.788 381.114 337.673C381.339 337.471 381.411 337.252 381.33 337.015C381.231 336.726 381.062 336.562 380.823 336.523C380.586 336.479 380.274 336.522 379.885 336.655C379.45 336.803 379.178 337.016 379.071 337.294C378.996 337.497 378.983 337.742 379.032 338.029L377.253 338.635C377.081 338.005 377.081 337.44 377.252 336.938C377.528 336.151 378.259 335.555 379.445 335.151C380.217 334.888 380.955 334.807 381.659 334.909C382.363 335.011 382.86 335.487 383.15 336.337L384.253 339.572C384.329 339.796 384.426 340.066 384.543 340.383C384.639 340.62 384.731 340.771 384.821 340.837C384.911 340.903 385.026 340.943 385.166 340.958L385.258 341.229L383.252 341.913C383.148 341.79 383.063 341.669 382.999 341.552C382.935 341.434 382.869 341.298 382.802 341.142C382.641 341.505 382.428 341.84 382.162 342.148C381.843 342.511 381.434 342.779 380.933 342.949C380.295 343.167 379.705 343.166 379.163 342.946C378.624 342.721 378.24 342.273 378.012 341.605C377.717 340.738 377.837 339.996 378.373 339.38C378.668 339.044 379.156 338.709 379.837 338.376L380.438 338.084ZM383.848 335.376L383.4 334.063L384.384 333.728L383.713 331.761L385.538 331.139L386.208 333.106L387.354 332.715L387.801 334.029L386.656 334.419L387.927 338.146C388.025 338.435 388.123 338.604 388.222 338.652C388.319 338.696 388.555 338.654 388.93 338.526C388.986 338.507 389.044 338.487 389.105 338.467C389.168 338.44 389.229 338.415 389.288 338.39L389.758 339.768L388.895 340.098C388.034 340.425 387.387 340.477 386.955 340.254C386.676 340.113 386.461 339.823 386.311 339.383L384.832 335.041L383.848 335.376ZM390.125 330.76L388.255 331.397L387.675 329.695L389.545 329.058L390.125 330.76ZM388.542 332.238L390.412 331.601L392.816 338.653L390.946 339.291L388.542 332.238ZM397.329 335.663C397.868 335.48 398.216 335.147 398.375 334.664C398.533 334.182 398.491 333.587 398.25 332.879C398.009 332.172 397.679 331.678 397.261 331.397C396.841 331.111 396.361 331.06 395.822 331.244C395.283 331.428 394.932 331.762 394.77 332.246C394.61 332.724 394.651 333.317 394.892 334.024C395.133 334.731 395.464 335.228 395.883 335.513C396.308 335.797 396.789 335.847 397.329 335.663ZM400.185 332.22C400.538 333.255 400.542 334.243 400.198 335.184C399.853 336.12 399.074 336.795 397.862 337.208C396.65 337.621 395.621 337.562 394.776 337.032C393.929 336.497 393.33 335.712 392.977 334.677C392.63 333.659 392.627 332.675 392.968 331.726C393.308 330.777 394.085 330.096 395.297 329.683C396.509 329.269 397.54 329.335 398.39 329.878C399.239 330.421 399.838 331.202 400.185 332.22ZM404.156 326.728C404.885 326.48 405.545 326.469 406.138 326.695C406.733 326.916 407.181 327.469 407.483 328.353L409.101 333.102L407.212 333.746L405.75 329.456C405.623 329.085 405.477 328.818 405.31 328.653C405.005 328.352 404.598 328.289 404.089 328.462C403.464 328.676 403.125 329.087 403.073 329.697C403.048 330.019 403.11 330.397 403.258 330.833L404.559 334.65L402.722 335.277L400.322 328.237L402.101 327.631L402.452 328.659C402.566 328.216 402.701 327.879 402.858 327.647C403.141 327.233 403.573 326.927 404.156 326.728Z" fill="#BBBBBB"/>
</g>
<g filter="url(#filter3_i)">
<path d="M293.246 259.963C293.092 259.462 292.849 259.146 292.518 259.015C292.191 258.882 291.79 258.888 291.315 259.035L289.44 259.612L290.313 262.447L292.188 261.87C292.663 261.724 292.996 261.495 293.186 261.183C293.38 260.871 293.401 260.464 293.246 259.963ZM295.235 259.336C295.585 260.473 295.545 261.365 295.115 262.013C294.685 262.66 293.937 263.148 292.869 263.477L290.825 264.107L291.891 267.569L289.892 268.185L286.926 258.555L291.12 257.263C292.087 256.966 292.934 256.976 293.662 257.296C294.39 257.615 294.914 258.295 295.235 259.336Z" fill="#9C9C9C"/>
<path d="M300.242 257.014C300.277 257.003 300.306 256.997 300.329 256.995C300.355 256.987 300.41 256.972 300.494 256.951L301.082 258.858C300.96 258.882 300.853 258.905 300.76 258.929C300.667 258.953 300.593 258.973 300.536 258.991C299.787 259.222 299.359 259.62 299.252 260.187C299.193 260.506 299.251 260.951 299.427 261.521L300.476 264.925L298.601 265.502L296.407 258.382L298.184 257.834L298.566 259.075C298.708 258.512 298.858 258.11 299.018 257.871C299.276 257.471 299.684 257.186 300.242 257.014Z" fill="#9C9C9C"/>
<path d="M306.624 261.593C307.168 261.426 307.527 261.103 307.699 260.625C307.871 260.148 307.848 259.552 307.627 258.838C307.407 258.123 307.092 257.62 306.683 257.326C306.271 257.029 305.794 256.964 305.249 257.131C304.705 257.299 304.344 257.622 304.167 258.101C303.994 258.574 304.017 259.168 304.237 259.882C304.457 260.596 304.773 261.102 305.184 261.4C305.599 261.697 306.079 261.761 306.624 261.593ZM309.581 258.236C309.903 259.281 309.878 260.269 309.506 261.199C309.133 262.124 308.335 262.776 307.111 263.153C305.887 263.53 304.861 263.441 304.032 262.885C303.201 262.326 302.625 261.523 302.303 260.478C301.986 259.45 302.013 258.467 302.382 257.528C302.75 256.59 303.547 255.932 304.771 255.555C305.995 255.178 307.023 255.273 307.856 255.842C308.689 256.41 309.264 257.208 309.581 258.236Z" fill="#9C9C9C"/>
<path d="M314.859 255.494C314.742 255.239 314.579 255.027 314.37 254.858C314.072 254.635 313.704 254.591 313.264 254.727C312.637 254.92 312.303 255.364 312.264 256.057C312.244 256.426 312.319 256.885 312.488 257.433C312.649 257.956 312.839 258.358 313.059 258.638C313.464 259.162 313.973 259.329 314.587 259.14C315.023 259.006 315.296 258.793 315.406 258.502C315.517 258.21 315.534 257.871 315.458 257.484L317.359 256.899C317.49 257.478 317.45 258.077 317.24 258.695C316.907 259.689 316.168 260.363 315.023 260.716C313.877 261.068 312.93 260.988 312.18 260.475C311.431 259.962 310.889 259.163 310.555 258.079C310.178 256.855 310.183 255.811 310.571 254.948C310.958 254.085 311.677 253.492 312.726 253.168C313.619 252.893 314.41 252.869 315.1 253.095C315.794 253.32 316.35 253.924 316.767 254.907L314.859 255.494Z" fill="#9C9C9C"/>
<path d="M320.491 252.436C320.059 252.569 319.766 252.807 319.609 253.151C319.457 253.494 319.422 253.905 319.503 254.385L322.397 253.494C322.215 253.011 321.95 252.685 321.602 252.516C321.258 252.341 320.887 252.314 320.491 252.436ZM320.018 250.901C320.61 250.718 321.178 250.665 321.721 250.741C322.264 250.817 322.764 251.047 323.221 251.431C323.63 251.767 323.961 252.201 324.216 252.733C324.364 253.045 324.529 253.51 324.709 254.126L319.836 255.628C320.082 256.334 320.461 256.766 320.972 256.923C321.284 257.022 321.62 257.017 321.982 256.905C322.365 256.787 322.643 256.582 322.815 256.291C322.91 256.133 322.975 255.934 323.011 255.694L324.912 255.108C324.994 255.546 324.906 256.042 324.648 256.599C324.252 257.479 323.505 258.088 322.407 258.426C321.502 258.705 320.612 258.66 319.74 258.29C318.868 257.919 318.229 257.076 317.824 255.761C317.444 254.529 317.465 253.488 317.885 252.638C318.309 251.787 319.02 251.208 320.018 250.901Z" fill="#9C9C9C"/>
<path d="M327.658 254.062C327.799 254.381 327.957 254.59 328.13 254.689C328.438 254.866 328.903 254.859 329.525 254.667C329.891 254.555 330.164 254.411 330.344 254.236C330.528 254.06 330.587 253.863 330.52 253.646C330.455 253.437 330.319 253.304 330.111 253.249C329.904 253.194 329.199 253.206 327.998 253.285C327.131 253.333 326.485 253.258 326.062 253.059C325.639 252.865 325.342 252.489 325.171 251.932C324.968 251.274 325.051 250.631 325.42 250.002C325.792 249.368 326.447 248.906 327.383 248.618C328.271 248.344 329.049 248.3 329.717 248.485C330.387 248.665 330.898 249.178 331.249 250.023L329.387 250.597C329.287 250.365 329.162 250.197 329.01 250.091C328.727 249.901 328.34 249.882 327.848 250.034C327.443 250.159 327.173 250.311 327.037 250.491C326.906 250.67 326.867 250.844 326.919 251.014C326.985 251.227 327.124 251.354 327.337 251.393C327.55 251.437 328.25 251.41 329.436 251.311C330.23 251.258 330.866 251.35 331.345 251.589C331.821 251.833 332.142 252.223 332.307 252.759C332.524 253.465 332.438 254.123 332.049 254.734C331.664 255.339 330.922 255.811 329.824 256.149C328.705 256.494 327.805 256.513 327.125 256.208C326.447 255.897 325.995 255.375 325.77 254.644L327.658 254.062Z" fill="#9C9C9C"/>
<path d="M335.106 251.768C335.247 252.087 335.404 252.296 335.578 252.395C335.885 252.572 336.35 252.565 336.973 252.373C337.339 252.26 337.612 252.117 337.792 251.942C337.976 251.766 338.034 251.569 337.967 251.351C337.903 251.142 337.767 251.01 337.559 250.955C337.351 250.9 336.647 250.912 335.446 250.991C334.578 251.039 333.933 250.963 333.509 250.765C333.087 250.571 332.79 250.195 332.618 249.637C332.416 248.98 332.499 248.336 332.868 247.708C333.24 247.073 333.894 246.612 334.831 246.324C335.719 246.05 336.497 246.006 337.165 246.191C337.835 246.371 338.346 246.883 338.697 247.729L336.835 248.303C336.735 248.071 336.609 247.902 336.457 247.797C336.175 247.607 335.788 247.588 335.295 247.74C334.89 247.864 334.62 248.017 334.485 248.197C334.354 248.375 334.315 248.55 334.367 248.72C334.433 248.933 334.572 249.059 334.784 249.099C334.998 249.143 335.698 249.115 336.883 249.017C337.678 248.963 338.314 249.056 338.793 249.295C339.269 249.539 339.589 249.929 339.754 250.465C339.972 251.17 339.886 251.829 339.497 252.44C339.111 253.045 338.37 253.516 337.272 253.855C336.153 254.199 335.253 254.219 334.572 253.914C333.895 253.603 333.443 253.081 333.218 252.35L335.106 251.768Z" fill="#9C9C9C"/>
<path d="M343.8 246.393C343.282 244.712 343.334 243.277 343.955 242.089C344.495 241.055 345.37 240.352 346.581 239.979C348.201 239.479 349.55 239.646 350.626 240.478C351.224 240.947 351.63 241.478 351.846 242.069L349.834 242.689C349.561 242.268 349.286 241.971 349.009 241.799C348.514 241.493 347.907 241.451 347.189 241.673C346.457 241.898 345.971 242.372 345.731 243.094C345.49 243.813 345.535 244.712 345.868 245.792C346.201 246.872 346.673 247.614 347.283 248.017C347.897 248.414 348.548 248.507 349.236 248.295C349.941 248.078 350.408 247.681 350.636 247.105C350.764 246.794 350.82 246.369 350.802 245.831L352.794 245.218C352.943 246.321 352.76 247.312 352.244 248.191C351.732 249.069 350.917 249.68 349.797 250.025C348.412 250.451 347.187 250.343 346.12 249.698C345.053 249.05 344.279 247.948 343.8 246.393Z" fill="#9C9C9C"/>
<path d="M357.986 245.771C358.531 245.604 358.889 245.281 359.061 244.803C359.234 244.326 359.21 243.73 358.99 243.016C358.77 242.301 358.455 241.798 358.045 241.504C357.634 241.207 357.156 241.141 356.612 241.309C356.067 241.477 355.707 241.8 355.53 242.279C355.356 242.752 355.379 243.346 355.599 244.06C355.819 244.774 356.135 245.28 356.546 245.578C356.962 245.875 357.442 245.939 357.986 245.771ZM360.943 242.414C361.265 243.459 361.24 244.447 360.869 245.377C360.496 246.302 359.697 246.954 358.474 247.331C357.25 247.708 356.223 247.618 355.394 247.063C354.564 246.504 353.987 245.701 353.665 244.656C353.349 243.628 353.375 242.645 353.744 241.706C354.113 240.768 354.909 240.11 356.133 239.733C357.357 239.356 358.385 239.451 359.219 240.02C360.052 240.588 360.627 241.386 360.943 242.414Z" fill="#9C9C9C"/>
<path d="M365.075 237.042C365.811 236.816 366.472 236.824 367.058 237.068C367.646 237.307 368.078 237.872 368.353 238.765L369.83 243.561L367.922 244.148L366.588 239.817C366.473 239.442 366.334 239.17 366.172 239.001C365.876 238.691 365.472 238.616 364.958 238.774C364.326 238.968 363.975 239.37 363.905 239.978C363.87 240.299 363.921 240.679 364.056 241.119L365.244 244.973L363.388 245.545L361.199 238.437L362.995 237.883L363.315 238.922C363.442 238.483 363.587 238.149 363.751 237.922C364.046 237.517 364.487 237.224 365.075 237.042Z" fill="#9C9C9C"/>
<path d="M369.058 237.525L368.649 236.199L369.642 235.893L369.031 233.907L370.873 233.34L371.485 235.326L372.641 234.969L373.05 236.296L371.893 236.652L373.052 240.415C373.142 240.707 373.236 240.878 373.333 240.929C373.428 240.976 373.665 240.941 374.044 240.825C374.101 240.807 374.16 240.789 374.221 240.77C374.285 240.746 374.346 240.722 374.406 240.699L374.835 242.09L373.963 242.395C373.092 242.696 372.444 242.729 372.019 242.493C371.744 242.344 371.538 242.047 371.401 241.603L370.051 237.219L369.058 237.525Z" fill="#9C9C9C"/>
<path d="M377.632 233.175C377.667 233.164 377.696 233.157 377.719 233.155C377.745 233.147 377.8 233.132 377.884 233.111L378.472 235.019C378.35 235.042 378.243 235.065 378.15 235.089C378.057 235.113 377.982 235.134 377.926 235.151C377.177 235.382 376.749 235.781 376.642 236.348C376.583 236.666 376.641 237.111 376.817 237.682L377.865 241.085L375.99 241.663L373.797 234.542L375.574 233.994L375.956 235.236C376.097 234.672 376.248 234.271 376.408 234.031C376.666 233.632 377.074 233.346 377.632 233.175Z" fill="#9C9C9C"/>
<path d="M384.014 237.754C384.558 237.586 384.916 237.263 385.089 236.786C385.261 236.308 385.237 235.712 385.017 234.998C384.797 234.284 384.482 233.78 384.072 233.487C383.661 233.189 383.183 233.124 382.639 233.292C382.095 233.459 381.734 233.783 381.557 234.261C381.384 234.735 381.407 235.328 381.627 236.043C381.847 236.757 382.162 237.263 382.574 237.561C382.989 237.857 383.469 237.921 384.014 237.754ZM386.971 234.396C387.293 235.442 387.268 236.429 386.896 237.359C386.523 238.285 385.725 238.936 384.501 239.313C383.277 239.69 382.251 239.601 381.422 239.046C380.591 238.486 380.015 237.683 379.693 236.638C379.376 235.61 379.402 234.627 379.771 233.688C380.14 232.75 380.937 232.092 382.161 231.715C383.384 231.338 384.413 231.434 385.246 232.002C386.079 232.57 386.654 233.368 386.971 234.396Z" fill="#9C9C9C"/>
<path d="M391.304 236.946L389.442 237.519L386.476 227.889L388.337 227.316L391.304 236.946Z" fill="#9C9C9C"/>
</g>
<g filter="url(#filter4_i)">
<path d="M290.977 150.562L292.272 155.078L293.605 154.695C294.287 154.5 294.666 154.027 294.742 153.277C294.783 152.866 294.731 152.405 294.585 151.895C294.383 151.191 294.117 150.683 293.787 150.371C293.459 150.055 292.967 149.992 292.31 150.18L290.977 150.562ZM292.209 148.909C292.64 148.792 293.011 148.74 293.323 148.752C293.853 148.772 294.33 148.952 294.753 149.292C295.092 149.567 295.363 149.892 295.566 150.268C295.768 150.643 295.921 151.012 296.025 151.375C296.289 152.295 296.328 153.127 296.142 153.871C295.888 154.876 295.238 155.527 294.193 155.827L291.213 156.682L289.229 149.763L292.209 148.909Z" fill="#96010F"/>
<path d="M300.159 151.424C300.09 151.502 300.016 151.57 299.939 151.63C299.863 151.685 299.754 151.749 299.612 151.82L299.328 151.962C299.061 152.093 298.876 152.212 298.775 152.319C298.603 152.5 298.554 152.719 298.628 152.976C298.693 153.204 298.804 153.352 298.958 153.419C299.115 153.483 299.285 153.488 299.466 153.436C299.754 153.354 299.994 153.194 300.187 152.956C300.382 152.717 300.421 152.372 300.302 151.922L300.159 151.424ZM299.168 151.033C299.406 150.931 299.572 150.841 299.665 150.764C299.832 150.627 299.891 150.473 299.842 150.301C299.782 150.092 299.667 149.969 299.498 149.933C299.33 149.893 299.106 149.913 298.824 149.994C298.508 150.084 298.307 150.227 298.22 150.421C298.16 150.563 298.142 150.738 298.167 150.944L296.876 151.314C296.776 150.859 296.796 150.455 296.936 150.103C297.16 149.551 297.703 149.152 298.563 148.905C299.123 148.745 299.653 148.713 300.151 148.811C300.65 148.908 300.988 149.265 301.164 149.881L301.837 152.228C301.884 152.391 301.944 152.587 302.016 152.817C302.076 152.99 302.137 153.101 302.198 153.151C302.26 153.201 302.341 153.234 302.44 153.249L302.496 153.446L301.041 153.864C300.971 153.772 300.915 153.683 300.873 153.597C300.832 153.511 300.79 153.411 300.747 153.298C300.62 153.551 300.456 153.783 300.255 153.992C300.015 154.241 299.713 154.417 299.35 154.521C298.887 154.654 298.466 154.632 298.087 154.457C297.711 154.277 297.453 153.944 297.314 153.459C297.133 152.83 297.245 152.305 297.65 151.885C297.872 151.655 298.231 151.434 298.729 151.22L299.168 151.033Z" fill="#96010F"/>
<path d="M301.696 149.221L301.423 148.268L302.137 148.064L301.727 146.637L303.051 146.257L303.46 147.684L304.291 147.446L304.564 148.399L303.733 148.637L304.508 151.34C304.569 151.55 304.633 151.674 304.701 151.712C304.769 151.747 304.939 151.725 305.211 151.647C305.252 151.635 305.294 151.623 305.338 151.611C305.384 151.594 305.428 151.578 305.471 151.562L305.758 152.562L305.131 152.767C304.505 152.97 304.042 152.985 303.741 152.81C303.547 152.7 303.404 152.485 303.313 152.166L302.41 149.016L301.696 149.221Z" fill="#96010F"/>
<path d="M308.711 148.972C308.642 149.05 308.568 149.118 308.49 149.178C308.415 149.233 308.306 149.297 308.164 149.368L307.88 149.51C307.612 149.641 307.428 149.76 307.327 149.867C307.155 150.048 307.106 150.267 307.18 150.524C307.245 150.752 307.355 150.9 307.51 150.967C307.667 151.031 307.836 151.036 308.018 150.984C308.306 150.902 308.546 150.742 308.739 150.504C308.934 150.265 308.973 149.92 308.854 149.47L308.711 148.972ZM307.72 148.581C307.958 148.479 308.124 148.389 308.217 148.311C308.384 148.175 308.443 148.021 308.394 147.849C308.334 147.64 308.219 147.517 308.05 147.481C307.882 147.441 307.658 147.461 307.376 147.542C307.06 147.632 306.859 147.775 306.772 147.969C306.712 148.111 306.694 148.286 306.719 148.492L305.428 148.862C305.328 148.407 305.348 148.003 305.488 147.651C305.712 147.099 306.254 146.7 307.115 146.453C307.675 146.293 308.204 146.261 308.703 146.359C309.202 146.456 309.539 146.813 309.716 147.429L310.389 149.776C310.436 149.939 310.495 150.135 310.568 150.365C310.628 150.538 310.688 150.649 310.75 150.699C310.812 150.749 310.892 150.782 310.992 150.797L311.048 150.994L309.593 151.412C309.523 151.32 309.467 151.231 309.425 151.145C309.384 151.059 309.341 150.959 309.299 150.846C309.172 151.099 309.008 151.33 308.807 151.54C308.567 151.789 308.265 151.965 307.902 152.069C307.439 152.202 307.018 152.18 306.639 152.005C306.263 151.825 306.005 151.492 305.866 151.007C305.685 150.378 305.797 149.853 306.202 149.433C306.424 149.203 306.783 148.982 307.281 148.768L307.72 148.581Z" fill="#96010F"/>
<path d="M314.502 143.817L315.796 148.333L317.129 147.95C317.812 147.755 318.191 147.282 318.267 146.532C318.308 146.121 318.256 145.66 318.109 145.15C317.907 144.446 317.642 143.938 317.312 143.626C316.984 143.31 316.492 143.247 315.835 143.435L314.502 143.817ZM315.734 142.163C316.165 142.047 316.536 141.995 316.847 142.007C317.378 142.027 317.855 142.207 318.277 142.547C318.617 142.822 318.888 143.147 319.09 143.523C319.293 143.898 319.446 144.267 319.55 144.63C319.814 145.55 319.853 146.382 319.667 147.126C319.413 148.13 318.763 148.782 317.718 149.082L314.737 149.937L312.754 143.018L315.734 142.163Z" fill="#96010F"/>
<path d="M322.853 141.941C322.878 141.934 322.899 141.929 322.915 141.928C322.934 141.923 322.974 141.913 323.034 141.899L323.427 143.27C323.34 143.285 323.263 143.3 323.196 143.316C323.13 143.331 323.076 143.345 323.035 143.357C322.497 143.511 322.186 143.79 322.102 144.193C322.055 144.42 322.09 144.738 322.208 145.148L322.909 147.594L321.562 147.98L320.095 142.864L321.372 142.498L321.628 143.389C321.736 142.989 321.849 142.704 321.967 142.535C322.157 142.254 322.452 142.056 322.853 141.941Z" fill="#96010F"/>
<path d="M325.055 140.781L323.699 141.17L323.345 139.936L324.701 139.547L325.055 140.781ZM323.874 141.78L325.23 141.391L326.697 146.508L325.341 146.896L323.874 141.78Z" fill="#96010F"/>
<path d="M329.684 140.114L331.121 139.702L330.743 145.347L329.33 145.753L326.028 141.163L327.53 140.732L329.677 144.2L329.684 140.114Z" fill="#96010F"/>
<path d="M334.177 139.873C333.867 139.961 333.654 140.128 333.537 140.371C333.424 140.613 333.393 140.907 333.444 141.251L335.523 140.655C335.4 140.307 335.215 140.071 334.969 139.945C334.726 139.815 334.461 139.791 334.177 139.873ZM333.86 138.77C334.286 138.648 334.692 138.617 335.079 138.679C335.466 138.741 335.82 138.912 336.14 139.193C336.428 139.439 336.659 139.754 336.833 140.137C336.935 140.362 337.045 140.696 337.166 141.139L333.664 142.143C333.83 142.651 334.094 142.964 334.457 143.084C334.679 143.159 334.919 143.16 335.179 143.085C335.454 143.006 335.656 142.864 335.783 142.658C335.852 142.547 335.902 142.405 335.931 142.235L337.297 141.843C337.349 142.156 337.279 142.51 337.088 142.904C336.792 143.527 336.25 143.951 335.462 144.177C334.811 144.364 334.176 144.319 333.559 144.042C332.941 143.766 332.497 143.155 332.226 142.21C331.972 141.324 332.001 140.581 332.313 139.98C332.628 139.379 333.144 138.975 333.86 138.77Z" fill="#96010F"/>
<path d="M340.032 137.015C340.561 136.864 341.032 136.879 341.447 137.062C341.864 137.24 342.164 137.65 342.348 138.292L343.336 141.737L341.966 142.13L341.073 139.018C340.996 138.749 340.901 138.552 340.788 138.429C340.581 138.204 340.293 138.144 339.924 138.25C339.47 138.38 339.214 138.662 339.155 139.095C339.126 139.324 339.157 139.596 339.247 139.912L340.041 142.681L338.708 143.064L337.244 137.957L338.535 137.587L338.749 138.333C338.845 138.021 338.954 137.785 339.074 137.625C339.29 137.34 339.609 137.136 340.032 137.015Z" fill="#96010F"/>
<path d="M294.679 164.82C294.813 165.123 294.967 165.335 295.14 165.455C295.457 165.672 295.899 165.699 296.469 165.536C296.81 165.438 297.076 165.321 297.267 165.185C297.63 164.925 297.755 164.6 297.643 164.209C297.577 163.98 297.426 163.832 297.19 163.764C296.955 163.7 296.61 163.682 296.154 163.711L295.375 163.757C294.608 163.8 294.06 163.766 293.73 163.654C293.172 163.469 292.796 163.037 292.601 162.358C292.424 161.738 292.501 161.159 292.835 160.62C293.168 160.08 293.771 159.686 294.644 159.435C295.373 159.226 296.049 159.242 296.674 159.483C297.301 159.72 297.732 160.203 297.968 160.931L296.578 161.329C296.434 160.92 296.168 160.676 295.78 160.598C295.521 160.547 295.224 160.569 294.89 160.665C294.517 160.772 294.241 160.932 294.062 161.146C293.883 161.36 293.832 161.602 293.909 161.871C293.98 162.118 294.143 162.271 294.397 162.33C294.561 162.371 294.889 162.381 295.38 162.358L296.654 162.303C297.213 162.278 297.655 162.333 297.981 162.466C298.488 162.673 298.829 163.085 299.006 163.701C299.187 164.333 299.095 164.928 298.731 165.487C298.368 166.041 297.745 166.445 296.863 166.698C295.962 166.956 295.194 166.954 294.561 166.693C293.926 166.428 293.505 165.935 293.299 165.216L294.679 164.82Z" fill="#96010F"/>
<path d="M302.573 163.847C302.964 163.735 303.224 163.509 303.354 163.171C303.484 162.832 303.475 162.406 303.328 161.893C303.181 161.38 302.963 161.015 302.675 160.8C302.385 160.582 302.045 160.529 301.654 160.641C301.263 160.753 301 160.979 300.868 161.318C300.737 161.654 300.745 162.078 300.892 162.591C301.039 163.105 301.258 163.47 301.547 163.689C301.84 163.906 302.182 163.959 302.573 163.847ZM304.732 161.49C304.947 162.241 304.915 162.946 304.637 163.605C304.358 164.261 303.778 164.715 302.899 164.967C302.02 165.219 301.288 165.141 300.704 164.733C300.118 164.322 299.718 163.741 299.503 162.99C299.291 162.251 299.324 161.549 299.6 160.884C299.877 160.219 300.455 159.76 301.334 159.508C302.213 159.256 302.946 159.339 303.533 159.756C304.121 160.174 304.52 160.752 304.732 161.49Z" fill="#96010F"/>
<path d="M307.79 163.372L306.453 163.755L304.469 156.837L305.807 156.453L307.79 163.372Z" fill="#96010F"/>
<path d="M308.966 157.498L309.85 160.582C309.934 160.873 310.031 161.082 310.142 161.209C310.338 161.434 310.615 161.495 310.972 161.393C311.429 161.262 311.689 160.987 311.752 160.57C311.782 160.344 311.75 160.067 311.656 159.739L310.858 156.956L312.214 156.567L313.681 161.683L312.381 162.055L312.174 161.333C312.166 161.352 312.148 161.408 312.12 161.5C312.093 161.593 312.053 161.679 312.001 161.758C311.845 162.006 311.679 162.193 311.501 162.318C311.327 162.442 311.108 162.542 310.845 162.618C310.088 162.835 309.5 162.709 309.081 162.24C308.848 161.981 308.648 161.56 308.48 160.975L307.596 157.891L308.966 157.498Z" fill="#96010F"/>
<path d="M313.271 157.346L312.997 156.393L313.711 156.188L313.302 154.761L314.625 154.382L315.034 155.809L315.865 155.571L316.138 156.523L315.308 156.762L316.083 159.465C316.143 159.675 316.207 159.799 316.276 159.837C316.343 159.871 316.513 159.85 316.785 159.772C316.826 159.76 316.868 159.748 316.912 159.735C316.958 159.719 317.003 159.703 317.045 159.687L317.332 160.687L316.705 160.892C316.079 161.095 315.616 161.109 315.316 160.935C315.121 160.824 314.979 160.61 314.887 160.291L313.984 157.141L313.271 157.346Z" fill="#96010F"/>
<path d="M317.911 154.273L316.555 154.662L316.201 153.427L317.557 153.038L317.911 154.273ZM316.729 155.272L318.086 154.883L319.553 159.999L318.196 160.388L316.729 155.272Z" fill="#96010F"/>
<path d="M322.878 158.025C323.269 157.913 323.529 157.687 323.659 157.349C323.789 157.01 323.78 156.584 323.633 156.071C323.486 155.558 323.268 155.194 322.98 154.978C322.69 154.76 322.35 154.707 321.959 154.819C321.567 154.931 321.305 155.157 321.172 155.496C321.042 155.832 321.05 156.256 321.197 156.769C321.344 157.283 321.563 157.648 321.852 157.867C322.145 158.084 322.487 158.137 322.878 158.025ZM325.037 155.669C325.252 156.42 325.22 157.125 324.942 157.783C324.663 158.439 324.083 158.893 323.204 159.145C322.325 159.397 321.593 159.319 321.009 158.911C320.423 158.5 320.023 157.919 319.808 157.168C319.596 156.429 319.628 155.728 319.905 155.062C320.182 154.397 320.76 153.939 321.639 153.686C322.518 153.434 323.251 153.517 323.838 153.935C324.425 154.352 324.825 154.93 325.037 155.669Z" fill="#96010F"/>
<path d="M328.063 151.89C328.591 151.739 329.063 151.754 329.478 151.937C329.895 152.115 330.195 152.525 330.379 153.167L331.367 156.612L329.996 157.005L329.104 153.893C329.027 153.624 328.932 153.428 328.818 153.304C328.612 153.079 328.324 153.019 327.954 153.125C327.501 153.255 327.245 153.537 327.186 153.97C327.157 154.199 327.187 154.471 327.278 154.787L328.072 157.557L326.739 157.939L325.275 152.832L326.565 152.462L326.779 153.208C326.876 152.896 326.985 152.66 327.105 152.5C327.321 152.215 327.64 152.012 328.063 151.89Z" fill="#96010F"/>
<path d="M333.18 154.324C333.276 154.554 333.385 154.706 333.508 154.779C333.725 154.91 334.057 154.911 334.505 154.783C334.768 154.707 334.964 154.608 335.095 154.486C335.229 154.363 335.274 154.223 335.229 154.067C335.186 153.917 335.091 153.82 334.943 153.778C334.796 153.736 334.292 153.734 333.433 153.774C332.813 153.796 332.353 153.733 332.054 153.586C331.755 153.441 331.548 153.168 331.433 152.768C331.298 152.295 331.366 151.837 331.638 151.393C331.913 150.946 332.387 150.625 333.059 150.432C333.698 150.249 334.254 150.229 334.728 150.37C335.204 150.508 335.562 150.881 335.801 151.49L334.463 151.874C334.395 151.707 334.307 151.585 334.201 151.507C334.001 151.368 333.725 151.349 333.371 151.45C333.08 151.534 332.885 151.639 332.786 151.765C332.69 151.891 332.66 152.015 332.695 152.137C332.739 152.29 332.836 152.382 332.987 152.414C333.139 152.448 333.64 152.438 334.488 152.385C335.056 152.357 335.509 152.432 335.847 152.61C336.184 152.791 336.407 153.074 336.518 153.459C336.663 153.966 336.593 154.434 336.306 154.865C336.022 155.292 335.486 155.619 334.698 155.845C333.893 156.075 333.25 156.077 332.769 155.849C332.289 155.618 331.974 155.239 331.823 154.713L333.18 154.324Z" fill="#96010F"/>
</g>
</g>
<defs>
<filter id="filter0_f" x="-8" y="298" width="616.804" height="297.216" filterUnits="userSpaceOnUse" color-interpolation-filters="sRGB">
<feFlood flood-opacity="0" result="BackgroundImageFix"/>
<feBlend mode="normal" in="SourceGraphic" in2="BackgroundImageFix" result="shape"/>
<feGaussianBlur stdDeviation="35" result="effect1_foregroundBlur"/>
</filter>
<filter id="filter1_i" x="278.197" y="387.986" width="242.614" height="94.0554" filterUnits="userSpaceOnUse" color-interpolation-filters="sRGB">
<feFlood flood-opacity="0" result="BackgroundImageFix"/>
<feBlend mode="normal" in="SourceGraphic" in2="BackgroundImageFix" result="shape"/>
<feColorMatrix in="SourceAlpha" type="matrix" values="0 0 0 0 0 0 0 0 0 0 0 0 0 0 0 0 0 0 127 0" result="hardAlpha"/>
<feOffset dy="1"/>
<feGaussianBlur stdDeviation="0.5"/>
<feComposite in2="hardAlpha" operator="arithmetic" k2="-1" k3="1"/>
<feColorMatrix type="matrix" values="0 0 0 0 0 0 0 0 0 0 0 0 0 0 0 0 0 0 0.2 0"/>
<feBlend mode="normal" in2="shape" result="effect1_innerShadow"/>
</filter>
<filter id="filter2_i" x="281.762" y="326.533" width="127.34" height="49.8662" filterUnits="userSpaceOnUse" color-interpolation-filters="sRGB">
<feFlood flood-opacity="0" result="BackgroundImageFix"/>
<feBlend mode="normal" in="SourceGraphic" in2="BackgroundImageFix" result="shape"/>
<feColorMatrix in="SourceAlpha" type="matrix" values="0 0 0 0 0 0 0 0 0 0 0 0 0 0 0 0 0 0 127 0" result="hardAlpha"/>
<feOffset dy="1"/>
<feGaussianBlur stdDeviation="0.5"/>
<feComposite in2="hardAlpha" operator="arithmetic" k2="-1" k3="1"/>
<feColorMatrix type="matrix" values="0 0 0 0 0 0 0 0 0 0 0 0 0 0 0 0 0 0 0.2 0"/>
<feBlend mode="normal" in2="shape" result="effect1_innerShadow"/>
</filter>
<filter id="filter3_i" x="286.926" y="227.316" width="104.378" height="41.8692" filterUnits="userSpaceOnUse" color-interpolation-filters="sRGB">
<feFlood flood-opacity="0" result="BackgroundImageFix"/>
<feBlend mode="normal" in="SourceGraphic" in2="BackgroundImageFix" result="shape"/>
<feColorMatrix in="SourceAlpha" type="matrix" values="0 0 0 0 0 0 0 0 0 0 0 0 0 0 0 0 0 0 127 0" result="hardAlpha"/>
<feOffset dy="1"/>
<feGaussianBlur stdDeviation="0.5"/>
<feComposite in2="hardAlpha" operator="arithmetic" k2="-1" k3="1"/>
<feColorMatrix type="matrix" values="0 0 0 0 0 0 0 0 0 0 0 0 0 0 0 0 0 0 0.2 0"/>
<feBlend mode="normal" in2="shape" result="effect1_innerShadow"/>
</filter>
<filter id="filter4_i" x="289.229" y="136.912" width="54.1071" height="30.9782" filterUnits="userSpaceOnUse" color-interpolation-filters="sRGB">
<feFlood flood-opacity="0" result="BackgroundImageFix"/>
<feBlend mode="normal" in="SourceGraphic" in2="BackgroundImageFix" result="shape"/>
<feColorMatrix in="SourceAlpha" type="matrix" values="0 0 0 0 0 0 0 0 0 0 0 0 0 0 0 0 0 0 127 0" result="hardAlpha"/>
<feOffset dy="1"/>
<feGaussianBlur stdDeviation="0.5"/>
<feComposite in2="hardAlpha" operator="arithmetic" k2="-1" k3="1"/>
<feColorMatrix type="matrix" values="0 0 0 0 0 0 0 0 0 0 0 0 0 0 0 0 0 0 0.2 0"/>
<feBlend mode="normal" in2="shape" result="effect1_innerShadow"/>
</filter>
<clipPath id="clip0">
<rect width="600" height="600" fill="white"/>
</clipPath>
</defs>
</svg>
