<svg width="600" height="600" viewBox="0 0 600 600" fill="none" xmlns="http://www.w3.org/2000/svg">
<g clip-path="url(#clip0)">
<g filter="url(#filter0_f)">
<path d="M267.468 525.216L62 418.778L299.911 368L538.804 433.425L267.468 525.216Z" fill="black" fill-opacity="0.15"/>
</g>
<path d="M485 335L538.8 396.541L268.5 495L274 406.5L485 335Z" fill="white"/>
<path d="M114.5 323.5L62 384.335L268.5 495L274 406.5L114.5 323.5Z" fill="#F1F1F1"/>
<path d="M274 406.5L114.5 323.5L299.255 283.635L485 335L274 406.5Z" fill="#939393"/>
<path d="M425.5 252.5L485 315L274 386.5L280 298.5L425.5 252.5Z" fill="#EAEAEA"/>
<path d="M274 386.5L280 298.5L169.385 245.506L114.5 303.5L274 386.5Z" fill="#BDBDBD"/>
<path d="M280 298.5L169.384 245.506L298.311 216.517L425.5 252.5L280 298.5Z" fill="#939393"/>
<path d="M285 195L222.5 166.5L169.5 225.5L280 278.5L285 195Z" fill="#A7A7A7"/>
<path d="M366.001 170.5L425.501 232.5L280.001 278.5L285.001 195L366.001 170.5Z" fill="#CBCBCB"/>
<path d="M285 195L222.5 166.5L295.142 149.8L366 170.5L285 195Z" fill="#939393"/>
<path d="M222.5 146.5L291.359 74L285 175L222.5 146.5Z" fill="#B71726"/>
<path d="M366 150.5L291.359 74L285 175L366 150.5Z" fill="#E0091D"/>
<g filter="url(#filter1_i)">
<path d="M285.882 469.825L286.483 471.505L283.645 472.52L286.438 480.328L284.443 481.041L281.65 473.234L278.798 474.254L278.197 472.574L285.882 469.825Z" fill="#F2F2F2"/>
<path d="M289.138 470.504L287.278 471.169L286.673 469.477L288.533 468.811L289.138 470.504ZM287.578 472.006L289.438 471.341L291.948 478.356L290.088 479.022L287.578 472.006Z" fill="#F2F2F2"/>
<path d="M296.204 475.135C296.633 474.981 296.938 474.691 297.119 474.263C297.298 473.831 297.262 473.261 297.008 472.553C296.77 471.888 296.448 471.432 296.04 471.186C295.637 470.938 295.199 470.899 294.727 471.067C294.083 471.298 293.748 471.759 293.719 472.452C293.706 472.82 293.783 473.239 293.952 473.711C294.098 474.119 294.297 474.457 294.547 474.726C295.008 475.229 295.56 475.365 296.204 475.135ZM293.716 469.621C294.068 469.495 294.394 469.439 294.694 469.453C295.206 469.478 295.688 469.688 296.139 470.083L295.778 469.073L297.561 468.435L299.942 475.09C300.265 475.995 300.357 476.732 300.217 477.3C299.976 478.277 299.113 479.031 297.628 479.562C296.731 479.883 295.937 479.969 295.245 479.82C294.552 479.67 294.051 479.257 293.741 478.579L295.736 477.865C295.864 478.061 296.003 478.186 296.153 478.239C296.41 478.335 296.773 478.3 297.24 478.133C297.901 477.896 298.264 477.517 298.329 476.996C298.374 476.66 298.276 476.158 298.037 475.488L297.875 475.038C297.807 475.401 297.699 475.694 297.551 475.916C297.286 476.326 296.862 476.635 296.278 476.844C295.377 477.166 294.543 477.108 293.777 476.671C293.013 476.228 292.438 475.466 292.051 474.384C291.678 473.342 291.625 472.373 291.891 471.48C292.155 470.582 292.763 469.962 293.716 469.621Z" fill="#F2F2F2"/>
<path d="M303.083 466.256C303.516 466.101 303.936 466.035 304.341 466.06C304.751 466.082 305.125 466.208 305.463 466.435C305.75 466.628 305.965 466.856 306.107 467.12C306.248 467.379 306.431 467.822 306.655 468.448L308.129 472.567L306.256 473.238L304.729 468.97C304.594 468.593 304.421 468.311 304.209 468.125C303.925 467.859 303.549 467.81 303.082 467.977C302.597 468.15 302.286 468.445 302.149 468.862C302.016 469.273 302.056 469.779 302.271 470.38L303.63 474.177L301.802 474.831L298.419 465.376L300.247 464.722L301.447 468.075C301.567 467.572 301.773 467.18 302.063 466.896C302.357 466.607 302.697 466.394 303.083 466.256Z" fill="#F2F2F2"/>
<path d="M307.107 466.566L306.64 465.259L307.618 464.909L306.918 462.953L308.733 462.303L309.433 464.26L310.572 463.852L311.04 465.159L309.9 465.566L311.227 469.274C311.33 469.561 311.431 469.728 311.53 469.775C311.627 469.818 311.863 469.772 312.236 469.639C312.292 469.619 312.35 469.598 312.41 469.577C312.473 469.549 312.533 469.523 312.592 469.497L313.082 470.868L312.225 471.211C311.369 471.551 310.723 471.613 310.287 471.396C310.006 471.259 309.787 470.972 309.631 470.535L308.085 466.216L307.107 466.566Z" fill="#F2F2F2"/>
<path d="M314.969 463.702C314.544 463.854 314.262 464.105 314.121 464.456C313.984 464.805 313.967 465.217 314.07 465.694L316.921 464.674C316.718 464.2 316.438 463.886 316.083 463.732C315.731 463.572 315.36 463.563 314.969 463.702ZM314.428 462.19C315.012 461.981 315.576 461.902 316.122 461.954C316.668 462.005 317.178 462.213 317.652 462.576C318.075 462.894 318.426 463.313 318.704 463.833C318.866 464.138 319.051 464.594 319.259 465.202L314.458 466.92C314.735 467.614 315.133 468.029 315.65 468.163C315.966 468.249 316.303 468.228 316.659 468.1C317.036 467.965 317.305 467.748 317.464 467.449C317.551 467.287 317.607 467.085 317.632 466.844L319.505 466.174C319.607 466.607 319.542 467.107 319.309 467.675C318.952 468.572 318.233 469.214 317.152 469.601C316.259 469.92 315.369 469.914 314.481 469.583C313.593 469.252 312.917 468.439 312.454 467.143C312.019 465.929 311.993 464.888 312.375 464.02C312.761 463.151 313.445 462.541 314.428 462.19Z" fill="#F2F2F2"/>
<path d="M322.892 459.183C323.618 458.924 324.278 458.903 324.874 459.121C325.472 459.332 325.929 459.878 326.244 460.758L327.934 465.482L326.054 466.154L324.528 461.887C324.396 461.518 324.245 461.253 324.076 461.09C323.766 460.794 323.359 460.737 322.852 460.918C322.23 461.141 321.898 461.557 321.855 462.168C321.834 462.49 321.902 462.868 322.057 463.301L323.415 467.099L321.587 467.753L319.082 460.75L320.852 460.116L321.218 461.14C321.325 460.695 321.456 460.356 321.609 460.122C321.885 459.703 322.313 459.39 322.892 459.183Z" fill="#F2F2F2"/>
<path d="M328.71 456.347L326.849 457.012L326.244 455.32L328.104 454.654L328.71 456.347ZM327.149 457.849L329.009 457.184L331.519 464.199L329.659 464.865L327.149 457.849Z" fill="#F2F2F2"/>
<path d="M334.62 454.988C335.345 454.728 336.005 454.707 336.601 454.925C337.199 455.137 337.656 455.683 337.971 456.562L339.661 461.287L337.782 461.959L336.255 457.692C336.123 457.323 335.972 457.057 335.803 456.895C335.494 456.599 335.086 456.542 334.58 456.723C333.957 456.945 333.625 457.362 333.582 457.973C333.562 458.295 333.629 458.672 333.784 459.106L335.143 462.903L333.315 463.557L330.809 456.554L332.579 455.921L332.945 456.944C333.052 456.499 333.183 456.16 333.336 455.926C333.612 455.508 334.04 455.195 334.62 454.988Z" fill="#F2F2F2"/>
<path d="M343.834 458.095C344.263 457.941 344.568 457.651 344.749 457.223C344.928 456.791 344.891 456.221 344.638 455.513C344.4 454.848 344.077 454.392 343.67 454.146C343.266 453.898 342.829 453.859 342.357 454.028C341.713 454.258 341.377 454.719 341.349 455.412C341.335 455.78 341.413 456.2 341.582 456.672C341.728 457.079 341.926 457.417 342.177 457.686C342.638 458.189 343.19 458.325 343.834 458.095ZM341.346 452.581C341.697 452.456 342.023 452.399 342.324 452.413C342.836 452.438 343.318 452.648 343.769 453.043L343.407 452.033L345.19 451.395L347.571 458.05C347.895 458.955 347.987 459.692 347.846 460.26C347.605 461.237 346.742 461.991 345.258 462.522C344.361 462.843 343.566 462.929 342.874 462.78C342.182 462.63 341.681 462.217 341.37 461.539L343.366 460.825C343.494 461.021 343.633 461.146 343.782 461.199C344.04 461.296 344.402 461.26 344.87 461.093C345.531 460.856 345.894 460.477 345.959 459.956C346.003 459.62 345.906 459.118 345.666 458.448L345.505 457.998C345.437 458.361 345.328 458.654 345.18 458.876C344.915 459.286 344.491 459.595 343.908 459.804C343.007 460.126 342.173 460.068 341.406 459.631C340.643 459.188 340.068 458.426 339.681 457.344C339.308 456.302 339.254 455.333 339.52 454.44C339.785 453.542 340.393 452.922 341.346 452.581Z" fill="#F2F2F2"/>
<path d="M351.688 445.956L353.213 445.41L353.023 456.506L351.51 457.047L351.688 445.956Z" fill="#F2F2F2"/>
<path d="M359.693 445.277L361.908 451.469L363.736 450.815C364.671 450.48 365.158 449.786 365.197 448.731C365.218 448.153 365.103 447.514 364.853 446.814C364.507 445.849 364.09 445.163 363.601 444.757C363.115 444.345 362.422 444.301 361.521 444.623L359.693 445.277ZM361.266 442.856C361.857 442.654 362.371 442.548 362.807 442.537C363.55 442.517 364.232 442.726 364.853 443.162C365.352 443.516 365.76 443.946 366.077 444.452C366.394 444.959 366.641 445.461 366.819 445.958C367.27 447.22 367.4 448.379 367.206 449.435C366.942 450.861 366.093 451.83 364.66 452.343L360.573 453.805L357.179 444.318L361.266 442.856Z" fill="#F2F2F2"/>
<path d="M371.191 441.904C371.226 441.892 371.254 441.884 371.277 441.88C371.303 441.871 371.357 441.854 371.441 441.829L372.113 443.709C371.992 443.737 371.886 443.765 371.795 443.793C371.703 443.821 371.629 443.845 371.574 443.865C370.836 444.129 370.426 444.547 370.345 445.118C370.3 445.439 370.378 445.881 370.579 446.443L371.779 449.796L369.931 450.457L367.422 443.441L369.172 442.815L369.61 444.038C369.726 443.469 369.858 443.061 370.007 442.814C370.247 442.404 370.642 442.1 371.191 441.904Z" fill="#F2F2F2"/>
<path d="M374.164 440.085L372.304 440.751L371.698 439.058L373.558 438.393L374.164 440.085ZM372.603 441.588L374.463 440.922L376.973 447.938L375.113 448.603L372.603 441.588Z" fill="#F2F2F2"/>
<path d="M380.629 446.63L378.794 447.286L375.4 437.799L377.235 437.143L380.629 446.63Z" fill="#F2F2F2"/>
<path d="M384.298 445.317L382.463 445.974L379.069 436.486L380.903 435.83L384.298 445.317Z" fill="#F2F2F2"/>
<path d="M385.17 436.148L383.31 436.813L382.704 435.12L384.564 434.455L385.17 436.148ZM383.609 437.65L385.469 436.985L387.979 444L386.119 444.666L383.609 437.65Z" fill="#F2F2F2"/>
<path d="M391.08 434.788C391.805 434.529 392.466 434.508 393.061 434.726C393.66 434.938 394.116 435.483 394.431 436.363L396.121 441.087L394.242 441.76L392.715 437.492C392.583 437.123 392.433 436.858 392.263 436.696C391.954 436.4 391.546 436.342 391.04 436.523C390.418 436.746 390.085 437.163 390.042 437.773C390.022 438.095 390.089 438.473 390.244 438.906L391.603 442.704L389.775 443.358L387.27 436.355L389.04 435.722L389.406 436.745C389.513 436.3 389.643 435.961 389.797 435.727C390.073 435.308 390.501 434.996 391.08 434.788Z" fill="#F2F2F2"/>
<path d="M400.294 437.896C400.723 437.742 401.028 437.451 401.209 437.024C401.388 436.592 401.351 436.022 401.098 435.314C400.86 434.649 400.537 434.193 400.13 433.947C399.727 433.699 399.289 433.659 398.817 433.828C398.173 434.059 397.838 434.52 397.809 435.212C397.796 435.58 397.873 436 398.042 436.472C398.188 436.88 398.386 437.218 398.637 437.486C399.098 437.989 399.65 438.126 400.294 437.896ZM397.806 432.382C398.158 432.256 398.484 432.2 398.784 432.214C399.296 432.239 399.778 432.449 400.229 432.844L399.868 431.833L401.65 431.196L404.031 437.851C404.355 438.756 404.447 439.493 404.307 440.061C404.066 441.038 403.203 441.792 401.718 442.323C400.821 442.644 400.027 442.73 399.335 442.58C398.642 442.431 398.141 442.018 397.831 441.34L399.826 440.626C399.954 440.822 400.093 440.947 400.243 441C400.5 441.096 400.863 441.061 401.33 440.894C401.991 440.657 402.354 440.278 402.419 439.756C402.464 439.421 402.366 438.919 402.127 438.249L401.965 437.799C401.897 438.162 401.789 438.455 401.641 438.677C401.376 439.086 400.952 439.396 400.368 439.604C399.467 439.927 398.633 439.869 397.867 439.432C397.103 438.989 396.528 438.226 396.141 437.145C395.768 436.102 395.715 435.134 395.981 434.24C396.245 433.342 396.853 432.723 397.806 432.382Z" fill="#F2F2F2"/>
<path d="M408.148 425.756L409.674 425.211L409.483 436.307L407.971 436.848L408.148 425.756Z" fill="#F2F2F2"/>
<path d="M419.927 421.869L422.779 420.849L426.173 430.336L424.326 430.997L422.03 424.58C421.964 424.395 421.874 424.137 421.76 423.805C421.645 423.469 421.555 423.211 421.49 423.03L422.543 431.635L420.618 432.323L415.987 424.999C416.052 425.179 416.146 425.436 416.27 425.769C416.392 426.098 416.487 426.355 416.553 426.539L418.848 432.956L417.001 433.617L413.607 424.13L416.49 423.098L420.884 429.941L419.927 421.869Z" fill="#F2F2F2"/>
<path d="M428.598 423.05C428.173 423.202 427.89 423.454 427.749 423.804C427.613 424.153 427.596 424.566 427.699 425.042L430.55 424.022C430.346 423.548 430.067 423.234 429.712 423.08C429.36 422.921 428.988 422.911 428.598 423.05ZM428.057 421.538C428.64 421.329 429.205 421.25 429.751 421.302C430.297 421.354 430.807 421.561 431.28 421.924C431.704 422.242 432.055 422.661 432.333 423.181C432.495 423.486 432.68 423.942 432.888 424.55L428.086 426.268C428.364 426.963 428.761 427.377 429.279 427.511C429.595 427.597 429.931 427.576 430.287 427.448C430.665 427.313 430.933 427.096 431.093 426.797C431.18 426.635 431.236 426.434 431.261 426.192L433.134 425.522C433.236 425.955 433.17 426.456 432.938 427.023C432.581 427.92 431.862 428.562 430.781 428.949C429.888 429.268 428.998 429.262 428.11 428.932C427.222 428.601 426.546 427.787 426.083 426.491C425.648 425.277 425.622 424.236 426.004 423.369C426.39 422.5 427.074 421.889 428.057 421.538Z" fill="#F2F2F2"/>
<path d="M437.851 422.31C437.761 422.425 437.665 422.527 437.562 422.617C437.461 422.701 437.315 422.8 437.123 422.912L436.738 423.137C436.377 423.343 436.13 423.526 435.998 423.685C435.775 423.953 435.726 424.264 435.852 424.615C435.964 424.929 436.131 425.125 436.353 425.206C436.578 425.28 436.815 425.273 437.064 425.184C437.459 425.042 437.78 424.797 438.028 424.447C438.279 424.095 438.302 423.611 438.095 422.992L437.851 422.31ZM436.431 421.852C436.755 421.688 436.978 421.548 437.101 421.431C437.323 421.226 437.392 421.006 437.307 420.77C437.204 420.482 437.033 420.321 436.793 420.286C436.556 420.245 436.244 420.293 435.858 420.431C435.424 420.586 435.156 420.803 435.052 421.083C434.98 421.287 434.971 421.533 435.025 421.818L433.255 422.451C433.074 421.824 433.066 421.258 433.229 420.755C433.493 419.963 434.215 419.357 435.395 418.934C436.163 418.66 436.9 418.568 437.605 418.659C438.31 418.75 438.814 419.219 439.117 420.064L440.268 423.282C440.348 423.505 440.449 423.774 440.571 424.089C440.67 424.324 440.765 424.474 440.856 424.539C440.946 424.603 441.062 424.642 441.202 424.654L441.299 424.925L439.303 425.639C439.197 425.517 439.111 425.398 439.045 425.281C438.979 425.164 438.911 425.029 438.841 424.875C438.686 425.24 438.478 425.578 438.217 425.889C437.903 426.258 437.498 426.531 437 426.709C436.365 426.937 435.775 426.944 435.23 426.733C434.687 426.516 434.297 426.074 434.059 425.409C433.751 424.547 433.86 423.803 434.387 423.179C434.676 422.839 435.159 422.496 435.835 422.153L436.431 421.852Z" fill="#F2F2F2"/>
<path d="M443.168 421.729C443.324 422.041 443.49 422.243 443.668 422.335C443.983 422.498 444.447 422.47 445.061 422.25C445.421 422.121 445.688 421.965 445.859 421.783C446.036 421.599 446.085 421.4 446.008 421.185C445.935 420.979 445.793 420.853 445.583 420.807C445.373 420.761 444.67 420.805 443.473 420.938C442.609 421.024 441.961 420.978 441.529 420.798C441.098 420.623 440.785 420.261 440.588 419.712C440.356 419.064 440.411 418.418 440.751 417.773C441.094 417.123 441.727 416.633 442.65 416.303C443.525 415.989 444.301 415.91 444.976 416.066C445.654 416.215 446.187 416.705 446.575 417.534L444.741 418.19C444.631 417.963 444.497 417.8 444.341 417.701C444.05 417.525 443.663 417.523 443.178 417.696C442.779 417.839 442.516 418.004 442.388 418.189C442.266 418.374 442.234 418.549 442.294 418.717C442.369 418.927 442.514 419.047 442.728 419.077C442.943 419.111 443.641 419.053 444.821 418.902C445.612 418.812 446.252 418.876 446.741 419.093C447.228 419.316 447.565 419.692 447.754 420.219C448.003 420.914 447.946 421.576 447.585 422.204C447.227 422.826 446.507 423.33 445.426 423.717C444.323 424.111 443.425 424.171 442.731 423.897C442.041 423.616 441.566 423.116 441.308 422.395L443.168 421.729Z" fill="#F2F2F2"/>
<path d="M449.196 414.186L450.709 418.414C450.852 418.813 451.007 419.097 451.173 419.265C451.468 419.561 451.86 419.622 452.349 419.447C452.976 419.222 453.314 418.816 453.365 418.227C453.387 417.909 453.317 417.525 453.156 417.074L451.79 413.258L453.65 412.592L456.16 419.608L454.377 420.246L454.023 419.254C454.013 419.282 453.993 419.362 453.963 419.494C453.933 419.625 453.885 419.749 453.82 419.864C453.625 420.225 453.409 420.5 453.172 420.691C452.94 420.881 452.643 421.04 452.283 421.169C451.245 421.541 450.412 421.418 449.784 420.8C449.435 420.46 449.117 419.889 448.83 419.087L447.317 414.858L449.196 414.186Z" fill="#F2F2F2"/>
<path d="M459.177 410.426C459.212 410.414 459.24 410.406 459.263 410.402C459.289 410.393 459.343 410.376 459.427 410.351L460.099 412.231C459.978 412.259 459.872 412.288 459.781 412.316C459.689 412.344 459.615 412.367 459.56 412.387C458.822 412.651 458.412 413.069 458.331 413.64C458.286 413.961 458.364 414.403 458.565 414.965L459.765 418.318L457.917 418.979L455.408 411.963L457.158 411.337L457.596 412.56C457.712 411.991 457.844 411.583 457.993 411.336C458.233 410.926 458.628 410.622 459.177 410.426Z" fill="#F2F2F2"/>
<path d="M462.15 408.608L460.29 409.273L459.684 407.58L461.544 406.915L462.15 408.608ZM460.589 410.11L462.449 409.444L464.959 416.46L463.099 417.125L460.589 410.11Z" fill="#F2F2F2"/>
<path d="M468.06 407.248C468.785 406.989 469.445 406.968 470.041 407.186C470.64 407.397 471.096 407.943 471.411 408.823L473.101 413.547L471.222 414.219L469.695 409.952C469.563 409.583 469.412 409.318 469.243 409.155C468.934 408.859 468.526 408.802 468.02 408.983C467.397 409.206 467.065 409.622 467.022 410.233C467.002 410.555 467.069 410.933 467.224 411.366L468.583 415.164L466.755 415.818L464.249 408.815L466.019 408.181L466.386 409.205C466.493 408.76 466.623 408.421 466.776 408.187C467.053 407.768 467.48 407.455 468.06 407.248Z" fill="#F2F2F2"/>
<path d="M477.274 410.355C477.703 410.202 478.008 409.911 478.189 409.483C478.368 409.051 478.331 408.481 478.078 407.773C477.84 407.108 477.517 406.653 477.11 406.406C476.706 406.159 476.269 406.119 475.797 406.288C475.153 406.518 474.817 406.98 474.789 407.672C474.775 408.04 474.853 408.46 475.022 408.932C475.168 409.34 475.366 409.678 475.617 409.946C476.078 410.449 476.63 410.586 477.274 410.355ZM474.786 404.842C475.138 404.716 475.464 404.66 475.764 404.674C476.276 404.698 476.758 404.908 477.209 405.304L476.847 404.293L478.63 403.655L481.011 410.311C481.335 411.216 481.427 411.953 481.286 412.521C481.045 413.498 480.183 414.252 478.698 414.783C477.801 415.104 477.007 415.189 476.314 415.04C475.622 414.891 475.121 414.477 474.81 413.8L476.806 413.086C476.934 413.282 477.073 413.406 477.222 413.459C477.48 413.556 477.842 413.521 478.31 413.353C478.971 413.117 479.334 412.738 479.399 412.216C479.443 411.881 479.346 411.378 479.106 410.709L478.945 410.258C478.877 410.622 478.768 410.914 478.62 411.137C478.356 411.546 477.931 411.855 477.348 412.064C476.447 412.386 475.613 412.329 474.847 411.892C474.083 411.448 473.508 410.686 473.121 409.605C472.748 408.562 472.694 407.594 472.96 406.7C473.225 405.802 473.833 405.183 474.786 404.842Z" fill="#F2F2F2"/>
<path d="M487.498 404.353L489.905 403.491L487.385 400.182L487.498 404.353ZM485.508 398.407L487.748 397.605L494.502 405.891L492.352 406.66L491.043 404.928L487.548 406.179L487.589 408.364L485.517 409.105L485.508 398.407Z" fill="#F2F2F2"/>
<path d="M496.192 402.76C496.347 403.072 496.514 403.274 496.691 403.365C497.006 403.528 497.471 403.5 498.084 403.28C498.445 403.152 498.711 402.996 498.883 402.813C499.059 402.629 499.109 402.43 499.032 402.215C498.958 402.009 498.816 401.884 498.606 401.838C498.396 401.792 497.693 401.835 496.497 401.968C495.632 402.055 494.984 402.008 494.552 401.829C494.121 401.654 493.808 401.292 493.611 400.742C493.38 400.094 493.434 399.448 493.774 398.804C494.118 398.153 494.751 397.663 495.673 397.333C496.549 397.02 497.324 396.941 497.999 397.096C498.677 397.246 499.21 397.735 499.599 398.564L497.764 399.22C497.654 398.994 497.521 398.831 497.364 398.732C497.074 398.555 496.686 398.553 496.201 398.727C495.802 398.87 495.539 399.034 495.412 399.22C495.289 399.404 495.257 399.58 495.317 399.747C495.393 399.957 495.537 400.078 495.751 400.108C495.967 400.142 496.664 400.083 497.845 399.932C498.636 399.843 499.275 399.907 499.765 400.124C500.251 400.347 500.588 400.722 500.777 401.25C501.026 401.945 500.97 402.606 500.609 403.234C500.25 403.856 499.531 404.36 498.449 404.747C497.346 405.142 496.448 405.202 495.755 404.927C495.064 404.647 494.589 404.146 494.332 403.425L496.192 402.76Z" fill="#F2F2F2"/>
<path d="M503.529 400.135C503.685 400.447 503.851 400.649 504.029 400.74C504.344 400.903 504.808 400.875 505.422 400.655C505.782 400.526 506.048 400.371 506.22 400.188C506.396 400.004 506.446 399.805 506.369 399.59C506.296 399.384 506.154 399.258 505.944 399.213C505.734 399.167 505.031 399.21 503.834 399.343C502.97 399.43 502.321 399.383 501.889 399.204C501.459 399.029 501.145 398.666 500.949 398.117C500.717 397.469 500.771 396.823 501.112 396.179C501.455 395.528 502.088 395.038 503.011 394.708C503.886 394.395 504.661 394.316 505.337 394.471C506.014 394.621 506.548 395.11 506.936 395.939L505.102 396.595C504.992 396.368 504.858 396.206 504.702 396.107C504.411 395.93 504.023 395.928 503.539 396.102C503.139 396.245 502.876 396.409 502.749 396.595C502.626 396.779 502.595 396.955 502.655 397.122C502.73 397.332 502.875 397.453 503.089 397.482C503.304 397.517 504.002 397.458 505.182 397.307C505.973 397.218 506.613 397.282 507.102 397.499C507.588 397.722 507.926 398.097 508.115 398.625C508.363 399.32 508.307 399.981 507.946 400.609C507.588 401.231 506.868 401.735 505.787 402.122C504.684 402.517 503.786 402.577 503.092 402.302C502.401 402.022 501.927 401.521 501.669 400.8L503.529 400.135Z" fill="#F2F2F2"/>
<path d="M510.971 393.581C510.547 393.733 510.264 393.984 510.123 394.334C509.986 394.683 509.969 395.096 510.072 395.572L512.923 394.552C512.72 394.078 512.441 393.764 512.086 393.61C511.733 393.451 511.362 393.441 510.971 393.581ZM510.43 392.068C511.014 391.859 511.579 391.781 512.125 391.832C512.671 391.884 513.18 392.091 513.654 392.454C514.077 392.772 514.428 393.191 514.706 393.711C514.868 394.016 515.054 394.472 515.261 395.08L510.46 396.798C510.737 397.493 511.135 397.907 511.652 398.042C511.969 398.127 512.305 398.106 512.661 397.978C513.038 397.843 513.307 397.626 513.466 397.327C513.553 397.165 513.61 396.964 513.635 396.723L515.508 396.052C515.609 396.486 515.544 396.986 515.311 397.553C514.954 398.45 514.235 399.092 513.154 399.479C512.262 399.798 511.371 399.793 510.483 399.462C509.595 399.131 508.92 398.317 508.456 397.021C508.022 395.807 507.995 394.766 508.377 393.899C508.763 393.03 509.448 392.42 510.43 392.068Z" fill="#F2F2F2"/>
<path d="M514.836 392.249L514.369 390.942L515.347 390.592L514.647 388.635L516.462 387.986L517.162 389.943L518.302 389.535L518.769 390.842L517.63 391.249L518.956 394.957C519.059 395.244 519.16 395.411 519.259 395.458C519.357 395.501 519.592 395.455 519.965 395.322C520.021 395.302 520.079 395.281 520.139 395.259C520.202 395.232 520.263 395.206 520.321 395.18L520.812 396.551L519.954 396.894C519.098 397.234 518.452 397.296 518.017 397.079C517.735 396.942 517.516 396.655 517.36 396.217L515.815 391.899L514.836 392.249Z" fill="#F2F2F2"/>
</g>
<g filter="url(#filter2_i)">
<path d="M284.308 373.011C284.514 373.428 284.742 373.714 284.991 373.871C285.447 374.157 286.068 374.168 286.855 373.905C287.326 373.748 287.691 373.568 287.95 373.366C288.442 372.981 288.597 372.518 288.417 371.978C288.311 371.663 288.091 371.464 287.757 371.384C287.424 371.308 286.94 371.304 286.304 371.372L285.217 371.483C284.148 371.59 283.379 371.575 282.91 371.438C282.119 371.213 281.567 370.631 281.254 369.693C280.968 368.837 281.042 368.022 281.475 367.248C281.908 366.473 282.728 365.885 283.934 365.482C284.941 365.146 285.889 365.128 286.777 365.427C287.667 365.72 288.3 366.369 288.674 367.374L286.754 368.014C286.528 367.451 286.141 367.126 285.593 367.04C285.228 366.984 284.815 367.033 284.352 367.188C283.838 367.359 283.462 367.6 283.224 367.91C282.987 368.22 282.93 368.561 283.054 368.933C283.168 369.274 283.404 369.479 283.763 369.546C283.995 369.594 284.454 369.587 285.14 369.526L286.919 369.372C287.699 369.304 288.321 369.353 288.785 369.52C289.506 369.779 290.008 370.334 290.292 371.186C290.584 372.059 290.492 372.897 290.015 373.7C289.541 374.497 288.695 375.099 287.476 375.507C286.231 375.922 285.157 375.966 284.255 375.638C283.351 375.305 282.733 374.642 282.401 373.648L284.308 373.011Z" fill="#D7D7D7"/>
<path d="M293.293 374.797L293.53 374.732C293.715 374.68 293.886 374.615 294.043 374.539C294.2 374.462 294.321 374.367 294.408 374.251C294.491 374.142 294.54 373.955 294.552 373.691C294.57 373.426 294.561 373.27 294.526 373.224L289.469 366.712L291.524 366.025L294.808 370.723L294.526 365.023L296.491 364.367L296.387 372.127C296.367 373.623 296.275 374.577 296.11 374.987C295.945 375.403 295.455 375.747 294.638 376.019C294.474 376.074 294.341 376.116 294.24 376.145C294.141 376.178 293.99 376.221 293.786 376.275L293.293 374.797Z" fill="#D7D7D7"/>
<path d="M300.633 368.331C300.781 368.647 300.943 368.852 301.119 368.947C301.431 369.117 301.895 369.099 302.514 368.892C302.877 368.771 303.146 368.621 303.322 368.442C303.502 368.262 303.556 368.064 303.484 367.848C303.414 367.64 303.275 367.511 303.066 367.461C302.857 367.411 302.153 367.439 300.954 367.546C300.088 367.615 299.441 367.554 299.013 367.366C298.586 367.182 298.281 366.813 298.096 366.26C297.878 365.607 297.946 364.962 298.3 364.325C298.657 363.682 299.3 363.205 300.23 362.895C301.112 362.6 301.888 362.538 302.56 362.708C303.235 362.872 303.757 363.372 304.128 364.209L302.28 364.826C302.175 364.597 302.045 364.432 301.891 364.329C301.604 364.146 301.216 364.137 300.728 364.3C300.326 364.434 300.059 364.593 299.928 364.776C299.801 364.957 299.766 365.132 299.823 365.301C299.893 365.513 300.035 365.636 300.249 365.67C300.463 365.709 301.162 365.666 302.345 365.54C303.138 365.467 303.776 365.545 304.261 365.772C304.742 366.005 305.072 366.388 305.249 366.919C305.483 367.62 305.413 368.28 305.039 368.9C304.667 369.514 303.937 370.003 302.847 370.366C301.736 370.737 300.837 370.778 300.15 370.489C299.465 370.194 299.001 369.683 298.759 368.957L300.633 368.331Z" fill="#D7D7D7"/>
<path d="M304.713 363.156L304.274 361.84L305.259 361.511L304.601 359.54L306.43 358.929L307.088 360.9L308.236 360.517L308.675 361.833L307.527 362.217L308.775 365.951C308.871 366.241 308.969 366.41 309.067 366.459C309.163 366.504 309.4 366.463 309.776 366.338C309.832 366.319 309.89 366.299 309.951 366.279C310.014 366.253 310.075 366.228 310.134 366.204L310.596 367.585L309.731 367.909C308.868 368.231 308.221 368.279 307.79 368.053C307.512 367.91 307.299 367.619 307.152 367.178L305.699 362.827L304.713 363.156Z" fill="#D7D7D7"/>
<path d="M312.635 360.461C312.207 360.604 311.919 360.849 311.77 361.196C311.626 361.542 311.601 361.954 311.693 362.433L314.566 361.474C314.372 360.995 314.1 360.675 313.748 360.514C313.399 360.347 313.028 360.329 312.635 360.461ZM312.126 358.937C312.714 358.741 313.28 358.674 313.825 358.737C314.37 358.8 314.875 359.018 315.341 359.391C315.757 359.718 316.099 360.145 316.366 360.671C316.522 360.979 316.697 361.439 316.892 362.052L312.055 363.667C312.317 364.367 312.706 364.79 313.221 364.935C313.535 365.027 313.871 365.013 314.23 364.894C314.611 364.767 314.884 364.555 315.049 364.26C315.14 364.1 315.2 363.899 315.23 363.659L317.117 363.029C317.21 363.464 317.134 363.962 316.889 364.525C316.513 365.414 315.781 366.041 314.691 366.404C313.792 366.705 312.902 366.68 312.022 366.33C311.141 365.98 310.483 365.153 310.047 363.847C309.638 362.624 309.634 361.583 310.034 360.724C310.439 359.863 311.136 359.267 312.126 358.937Z" fill="#D7D7D7"/>
<path d="M324.638 354.795C324.949 354.691 325.276 354.649 325.619 354.669C325.962 354.689 326.307 354.809 326.655 355.03C326.936 355.21 327.171 355.467 327.36 355.803C327.483 356.026 327.62 356.367 327.773 356.825L329.248 361.284L327.355 361.916L325.852 357.417C325.762 357.149 325.646 356.943 325.501 356.798C325.227 356.525 324.87 356.462 324.429 356.609C323.919 356.779 323.637 357.109 323.584 357.597C323.56 357.855 323.601 358.142 323.706 358.457L325.111 362.666L323.25 363.287L321.845 359.079C321.705 358.66 321.56 358.369 321.41 358.208C321.14 357.918 320.779 357.849 320.325 358.001C319.797 358.177 319.5 358.466 319.432 358.868C319.398 359.096 319.445 359.402 319.573 359.787L320.994 364.04L319.12 364.666L316.764 357.612L318.56 357.012L318.904 358.043C319.011 357.599 319.14 357.265 319.291 357.042C319.557 356.645 319.976 356.352 320.546 356.161C321.087 355.981 321.563 355.954 321.975 356.08C322.317 356.211 322.615 356.427 322.868 356.726C322.972 356.231 323.171 355.825 323.464 355.511C323.78 355.19 324.171 354.951 324.638 354.795Z" fill="#D7D7D7"/>
<path d="M336.64 358.816L334.656 359.478L331.464 349.921L333.448 349.259L336.64 358.816Z" fill="#D7D7D7"/>
<path d="M339.858 349.698C340.588 349.454 341.249 349.448 341.84 349.678C342.434 349.902 342.879 350.458 343.175 351.344L344.764 356.103L342.871 356.735L341.435 352.436C341.311 352.065 341.166 351.796 341 351.63C340.698 351.328 340.291 351.262 339.781 351.432C339.154 351.641 338.813 352.051 338.757 352.66C338.73 352.982 338.789 353.361 338.935 353.797L340.212 357.623L338.371 358.238L336.015 351.183L337.798 350.588L338.143 351.619C338.259 351.176 338.396 350.84 338.555 350.609C338.84 350.197 339.274 349.893 339.858 349.698Z" fill="#D7D7D7"/>
<path d="M343.851 350.087L343.411 348.771L344.397 348.442L343.739 346.471L345.567 345.86L346.225 347.832L347.373 347.448L347.813 348.765L346.665 349.148L347.912 352.883C348.009 353.172 348.106 353.342 348.204 353.39C348.301 353.435 348.537 353.395 348.913 353.269C348.969 353.25 349.028 353.231 349.088 353.211C349.152 353.185 349.213 353.159 349.272 353.135L349.733 354.516L348.868 354.841C348.005 355.162 347.358 355.21 346.927 354.984C346.649 354.842 346.436 354.55 346.289 354.109L344.836 349.758L343.851 350.087Z" fill="#D7D7D7"/>
<path d="M351.772 347.392C351.344 347.535 351.056 347.78 350.908 348.127C350.764 348.473 350.738 348.886 350.831 349.364L353.703 348.405C353.51 347.926 353.237 347.607 352.885 347.445C352.537 347.278 352.165 347.261 351.772 347.392ZM351.263 345.868C351.851 345.672 352.417 345.605 352.962 345.668C353.507 345.732 354.012 345.95 354.478 346.323C354.895 346.65 355.236 347.076 355.503 347.602C355.659 347.91 355.834 348.371 356.029 348.983L351.192 350.598C351.455 351.298 351.844 351.721 352.358 351.866C352.672 351.958 353.009 351.945 353.368 351.825C353.748 351.698 354.021 351.487 354.187 351.191C354.277 351.031 354.338 350.831 354.368 350.59L356.255 349.96C356.347 350.395 356.271 350.894 356.026 351.456C355.651 352.345 354.918 352.972 353.829 353.336C352.93 353.636 352.04 353.611 351.159 353.261C350.278 352.912 349.62 352.084 349.184 350.779C348.776 349.555 348.771 348.514 349.172 347.655C349.576 346.794 350.273 346.199 351.263 345.868Z" fill="#D7D7D7"/>
<path d="M360.818 349.056C361.25 348.912 361.561 348.628 361.751 348.204C361.94 347.776 361.915 347.205 361.677 346.492C361.453 345.822 361.14 345.359 360.738 345.104C360.34 344.848 359.903 344.799 359.428 344.958C358.779 345.175 358.434 345.629 358.391 346.321C358.369 346.688 358.438 347.11 358.597 347.585C358.734 347.996 358.925 348.338 359.17 348.612C359.62 349.124 360.169 349.273 360.818 349.056ZM358.448 343.491C358.802 343.373 359.129 343.323 359.429 343.343C359.941 343.379 360.418 343.599 360.86 344.004L360.52 342.986L362.316 342.386L364.555 349.091C364.86 350.003 364.936 350.741 364.783 351.306C364.522 352.278 363.643 353.013 362.147 353.513C361.244 353.814 360.448 353.883 359.759 353.719C359.07 353.556 358.577 353.131 358.281 352.447L360.292 351.776C360.416 351.975 360.552 352.102 360.7 352.158C360.955 352.26 361.319 352.233 361.79 352.075C362.455 351.853 362.826 351.482 362.902 350.962C362.954 350.627 362.867 350.123 362.642 349.449L362.491 348.995C362.415 349.356 362.3 349.647 362.147 349.866C361.874 350.27 361.443 350.57 360.855 350.766C359.947 351.069 359.115 350.994 358.358 350.54C357.604 350.081 357.045 349.307 356.682 348.217C356.331 347.167 356.298 346.198 356.583 345.31C356.866 344.418 357.488 343.811 358.448 343.491Z" fill="#D7D7D7"/>
<path d="M367.83 340.358C367.864 340.346 367.893 340.339 367.916 340.336C367.942 340.328 367.997 340.312 368.081 340.289L368.713 342.182C368.592 342.208 368.485 342.234 368.393 342.26C368.301 342.286 368.227 342.308 368.17 342.327C367.427 342.575 367.008 342.984 366.915 343.553C366.863 343.873 366.932 344.317 367.121 344.883L368.249 348.261L366.388 348.882L364.028 341.815L365.792 341.226L366.203 342.458C366.331 341.891 366.472 341.486 366.626 341.243C366.875 340.838 367.277 340.543 367.83 340.358Z" fill="#D7D7D7"/>
<path d="M374.331 342.41C374.239 342.523 374.14 342.623 374.035 342.711C373.933 342.793 373.785 342.888 373.59 342.997L373.201 343.213C372.835 343.412 372.584 343.589 372.449 343.745C372.22 344.009 372.165 344.318 372.283 344.673C372.389 344.988 372.551 345.188 372.772 345.273C372.995 345.352 373.232 345.35 373.483 345.266C373.881 345.134 374.207 344.895 374.462 344.55C374.721 344.204 374.754 343.72 374.561 343.098L374.331 342.41ZM372.922 341.923C373.249 341.765 373.475 341.63 373.6 341.516C373.826 341.315 373.9 341.096 373.82 340.858C373.724 340.569 373.556 340.404 373.316 340.364C373.08 340.318 372.767 340.36 372.378 340.49C371.942 340.635 371.669 340.847 371.559 341.123C371.483 341.327 371.469 341.572 371.516 341.858L369.733 342.454C369.566 341.823 369.569 341.257 369.743 340.757C370.024 339.971 370.758 339.38 371.947 338.983C372.721 338.725 373.46 338.649 374.163 338.755C374.866 338.861 375.36 339.34 375.644 340.192L376.727 343.434C376.802 343.658 376.897 343.929 377.013 344.246C377.107 344.484 377.198 344.636 377.288 344.702C377.377 344.769 377.492 344.81 377.631 344.825L377.722 345.098L375.712 345.769C375.608 345.645 375.525 345.524 375.461 345.406C375.398 345.288 375.333 345.151 375.266 344.995C375.104 345.357 374.889 345.691 374.621 345.996C374.299 346.358 373.888 346.623 373.387 346.79C372.747 347.004 372.157 346.999 371.616 346.776C371.079 346.547 370.698 346.098 370.474 345.428C370.184 344.559 370.309 343.818 370.849 343.206C371.146 342.871 371.636 342.539 372.319 342.21L372.922 341.923Z" fill="#D7D7D7"/>
<path d="M376.349 339.236L375.909 337.92L376.895 337.591L376.236 335.619L378.065 335.009L378.723 336.98L379.871 336.597L380.31 337.913L379.163 338.296L380.41 342.031C380.507 342.321 380.604 342.49 380.702 342.539C380.798 342.583 381.035 342.543 381.411 342.417C381.467 342.399 381.525 342.379 381.586 342.359C381.649 342.333 381.711 342.308 381.77 342.283L382.231 343.664L381.366 343.989C380.503 344.311 379.856 344.359 379.425 344.133C379.147 343.99 378.934 343.698 378.787 343.258L377.334 338.907L376.349 339.236Z" fill="#D7D7D7"/>
<path d="M382.654 334.658L380.78 335.284L380.211 333.579L382.085 332.953L382.654 334.658ZM381.062 336.127L382.936 335.501L385.296 342.569L383.422 343.195L381.062 336.127Z" fill="#D7D7D7"/>
<path d="M389.827 339.607C390.367 339.427 390.718 339.096 390.879 338.614C391.04 338.133 391.003 337.538 390.766 336.829C390.529 336.12 390.203 335.624 389.786 335.34C389.368 335.052 388.889 334.998 388.348 335.178C387.808 335.359 387.455 335.691 387.29 336.173C387.127 336.651 387.164 337.244 387.401 337.952C387.638 338.661 387.965 339.16 388.383 339.448C388.805 339.734 389.287 339.787 389.827 339.607ZM392.705 336.181C393.051 337.219 393.049 338.207 392.7 339.145C392.349 340.079 391.566 340.749 390.351 341.155C389.136 341.56 388.108 341.495 387.266 340.959C386.423 340.419 385.828 339.631 385.482 338.593C385.141 337.573 385.144 336.59 385.491 335.643C385.838 334.696 386.618 334.019 387.833 333.614C389.048 333.208 390.078 333.28 390.924 333.828C391.771 334.377 392.364 335.161 392.705 336.181Z" fill="#D7D7D7"/>
<path d="M396.71 330.714C397.44 330.471 398.101 330.464 398.692 330.694C399.286 330.918 399.731 331.474 400.027 332.36L401.616 337.119L399.722 337.751L398.287 333.453C398.163 333.081 398.018 332.812 397.852 332.646C397.549 332.344 397.143 332.278 396.633 332.448C396.006 332.658 395.665 333.067 395.609 333.677C395.582 333.998 395.641 334.377 395.787 334.814L397.064 338.639L395.223 339.254L392.867 332.199L394.65 331.604L394.994 332.635C395.111 332.192 395.248 331.856 395.407 331.625C395.692 331.213 396.126 330.909 396.71 330.714Z" fill="#D7D7D7"/>
</g>
<g filter="url(#filter3_i)">
<path d="M293.246 259.963C293.092 259.462 292.849 259.146 292.518 259.014C292.191 258.881 291.79 258.888 291.315 259.034L289.44 259.612L290.313 262.447L292.188 261.87C292.663 261.723 292.995 261.495 293.186 261.183C293.38 260.871 293.4 260.464 293.246 259.963ZM295.235 259.336C295.585 260.473 295.545 261.365 295.115 262.012C294.685 262.66 293.936 263.148 292.869 263.477L290.824 264.107L291.891 267.569L289.892 268.185L286.926 258.555L291.12 257.263C292.087 256.965 292.934 256.976 293.662 257.296C294.39 257.615 294.914 258.295 295.235 259.336Z" fill="#B7B7B7"/>
<path d="M300.242 257.014C300.277 257.003 300.306 256.997 300.329 256.994C300.355 256.986 300.41 256.972 300.494 256.951L301.082 258.858C300.96 258.881 300.853 258.905 300.76 258.929C300.667 258.953 300.592 258.973 300.536 258.991C299.787 259.221 299.359 259.62 299.252 260.187C299.193 260.506 299.251 260.951 299.427 261.521L300.475 264.925L298.6 265.502L296.407 258.381L298.184 257.834L298.566 259.075C298.707 258.512 298.858 258.11 299.018 257.87C299.276 257.471 299.684 257.186 300.242 257.014Z" fill="#B7B7B7"/>
<path d="M306.624 261.593C307.168 261.425 307.526 261.103 307.699 260.625C307.871 260.148 307.847 259.552 307.627 258.838C307.407 258.123 307.092 257.62 306.682 257.326C306.271 257.028 305.793 256.963 305.249 257.131C304.705 257.299 304.344 257.622 304.167 258.101C303.994 258.574 304.017 259.168 304.237 259.882C304.457 260.596 304.772 261.102 305.184 261.4C305.599 261.696 306.079 261.761 306.624 261.593ZM309.581 258.236C309.903 259.281 309.878 260.269 309.506 261.199C309.133 262.124 308.335 262.776 307.111 263.153C305.887 263.53 304.861 263.44 304.032 262.885C303.201 262.326 302.625 261.523 302.303 260.478C301.986 259.45 302.012 258.467 302.381 257.528C302.75 256.589 303.547 255.932 304.771 255.555C305.994 255.178 307.023 255.273 307.856 255.842C308.689 256.41 309.264 257.208 309.581 258.236Z" fill="#B7B7B7"/>
<path d="M314.859 255.494C314.742 255.239 314.579 255.027 314.37 254.858C314.072 254.635 313.703 254.591 313.264 254.727C312.636 254.92 312.303 255.363 312.264 256.057C312.244 256.426 312.319 256.885 312.488 257.433C312.649 257.956 312.839 258.357 313.059 258.638C313.464 259.162 313.973 259.329 314.587 259.14C315.023 259.006 315.296 258.793 315.406 258.501C315.517 258.21 315.534 257.871 315.458 257.484L317.359 256.898C317.49 257.478 317.45 258.077 317.24 258.695C316.907 259.689 316.168 260.363 315.023 260.715C313.877 261.068 312.93 260.988 312.18 260.475C311.431 259.962 310.889 259.163 310.555 258.079C310.178 256.855 310.183 255.811 310.571 254.948C310.958 254.085 311.677 253.492 312.726 253.168C313.619 252.893 314.41 252.869 315.1 253.095C315.794 253.32 316.349 253.924 316.767 254.906L314.859 255.494Z" fill="#B7B7B7"/>
<path d="M320.491 252.436C320.059 252.569 319.766 252.807 319.609 253.151C319.457 253.493 319.422 253.905 319.503 254.385L322.397 253.494C322.215 253.011 321.95 252.685 321.602 252.516C321.257 252.34 320.887 252.314 320.491 252.436ZM320.018 250.901C320.61 250.718 321.178 250.665 321.721 250.741C322.264 250.817 322.764 251.047 323.221 251.43C323.63 251.767 323.961 252.201 324.216 252.733C324.364 253.045 324.529 253.51 324.709 254.126L319.836 255.628C320.082 256.334 320.46 256.766 320.971 256.923C321.283 257.022 321.62 257.016 321.982 256.905C322.365 256.787 322.643 256.582 322.815 256.291C322.91 256.133 322.975 255.934 323.011 255.694L324.912 255.108C324.994 255.546 324.906 256.042 324.648 256.599C324.252 257.479 323.505 258.088 322.407 258.426C321.501 258.705 320.612 258.66 319.74 258.289C318.868 257.919 318.229 257.076 317.824 255.761C317.444 254.528 317.464 253.487 317.885 252.638C318.309 251.787 319.02 251.208 320.018 250.901Z" fill="#B7B7B7"/>
<path d="M327.658 254.062C327.799 254.381 327.956 254.59 328.13 254.689C328.437 254.866 328.902 254.859 329.525 254.667C329.891 254.554 330.164 254.411 330.344 254.236C330.528 254.06 330.587 253.863 330.52 253.646C330.455 253.436 330.319 253.304 330.111 253.249C329.904 253.194 329.199 253.206 327.998 253.285C327.13 253.333 326.485 253.257 326.061 253.059C325.639 252.865 325.342 252.489 325.17 251.931C324.968 251.274 325.051 250.631 325.42 250.002C325.792 249.368 326.446 248.906 327.383 248.618C328.271 248.344 329.049 248.3 329.717 248.485C330.387 248.665 330.898 249.178 331.249 250.023L329.387 250.597C329.287 250.365 329.161 250.197 329.01 250.091C328.727 249.901 328.34 249.882 327.848 250.034C327.443 250.159 327.172 250.311 327.037 250.491C326.906 250.67 326.867 250.844 326.919 251.014C326.985 251.227 327.124 251.353 327.336 251.393C327.55 251.437 328.25 251.41 329.436 251.311C330.23 251.257 330.866 251.35 331.345 251.589C331.821 251.833 332.141 252.223 332.306 252.759C332.524 253.464 332.438 254.123 332.049 254.734C331.663 255.339 330.922 255.811 329.824 256.149C328.705 256.493 327.805 256.513 327.124 256.208C326.447 255.897 325.995 255.375 325.77 254.644L327.658 254.062Z" fill="#B7B7B7"/>
<path d="M335.106 251.768C335.247 252.087 335.404 252.296 335.578 252.395C335.885 252.572 336.35 252.565 336.973 252.373C337.339 252.26 337.612 252.117 337.791 251.942C337.976 251.766 338.034 251.569 337.967 251.351C337.903 251.142 337.767 251.01 337.559 250.955C337.351 250.9 336.647 250.912 335.446 250.991C334.578 251.039 333.933 250.963 333.509 250.765C333.087 250.571 332.79 250.195 332.618 249.637C332.415 248.98 332.499 248.336 332.868 247.708C333.24 247.073 333.894 246.612 334.83 246.323C335.719 246.05 336.497 246.006 337.164 246.191C337.835 246.371 338.346 246.883 338.697 247.729L336.835 248.302C336.735 248.071 336.609 247.902 336.457 247.796C336.175 247.607 335.787 247.588 335.295 247.74C334.89 247.864 334.62 248.017 334.485 248.197C334.354 248.375 334.314 248.55 334.367 248.719C334.433 248.933 334.572 249.059 334.784 249.099C334.998 249.143 335.698 249.115 336.883 249.017C337.677 248.963 338.314 249.056 338.793 249.294C339.269 249.539 339.589 249.929 339.754 250.465C339.971 251.17 339.886 251.828 339.497 252.439C339.111 253.045 338.369 253.516 337.272 253.854C336.153 254.199 335.253 254.219 334.572 253.914C333.894 253.603 333.443 253.081 333.218 252.349L335.106 251.768Z" fill="#B7B7B7"/>
<path d="M343.8 246.393C343.282 244.712 343.334 243.277 343.955 242.089C344.495 241.055 345.37 240.351 346.581 239.978C348.201 239.479 349.549 239.646 350.626 240.478C351.223 240.947 351.63 241.477 351.846 242.069L349.833 242.689C349.561 242.267 349.286 241.971 349.008 241.799C348.514 241.493 347.907 241.451 347.189 241.672C346.457 241.898 345.971 242.372 345.731 243.094C345.49 243.812 345.535 244.711 345.868 245.792C346.201 246.872 346.672 247.613 347.283 248.017C347.897 248.414 348.548 248.507 349.236 248.295C349.941 248.078 350.408 247.681 350.636 247.105C350.764 246.794 350.819 246.369 350.801 245.831L352.794 245.217C352.943 246.321 352.76 247.312 352.244 248.191C351.732 249.069 350.916 249.68 349.797 250.025C348.412 250.451 347.186 250.342 346.12 249.698C345.052 249.049 344.279 247.948 343.8 246.393Z" fill="#B7B7B7"/>
<path d="M357.986 245.771C358.53 245.603 358.889 245.281 359.061 244.803C359.234 244.326 359.21 243.73 358.99 243.016C358.77 242.301 358.455 241.797 358.045 241.504C357.634 241.206 357.156 241.141 356.611 241.309C356.067 241.477 355.706 241.8 355.53 242.279C355.356 242.752 355.379 243.346 355.599 244.06C355.819 244.774 356.135 245.28 356.546 245.578C356.962 245.874 357.442 245.939 357.986 245.771ZM360.943 242.414C361.265 243.459 361.24 244.447 360.869 245.377C360.496 246.302 359.697 246.953 358.473 247.33C357.25 247.707 356.223 247.618 355.394 247.063C354.564 246.503 353.987 245.701 353.665 244.656C353.349 243.628 353.375 242.645 353.744 241.706C354.113 240.767 354.909 240.11 356.133 239.733C357.357 239.356 358.385 239.451 359.218 240.02C360.052 240.588 360.626 241.386 360.943 242.414Z" fill="#B7B7B7"/>
<path d="M365.075 237.042C365.811 236.816 366.472 236.824 367.057 237.068C367.646 237.307 368.078 237.872 368.353 238.765L369.83 243.56L367.922 244.148L366.588 239.817C366.472 239.442 366.334 239.17 366.172 239.001C365.876 238.691 365.472 238.616 364.958 238.774C364.326 238.968 363.975 239.37 363.905 239.978C363.87 240.299 363.921 240.679 364.056 241.119L365.244 244.973L363.388 245.545L361.199 238.437L362.995 237.883L363.315 238.922C363.442 238.482 363.587 238.149 363.751 237.922C364.046 237.517 364.487 237.223 365.075 237.042Z" fill="#B7B7B7"/>
<path d="M369.058 237.525L368.649 236.199L369.642 235.893L369.031 233.907L370.873 233.339L371.485 235.325L372.641 234.969L373.049 236.295L371.893 236.652L373.052 240.415C373.142 240.706 373.236 240.878 373.332 240.929C373.428 240.976 373.665 240.941 374.044 240.824C374.101 240.807 374.159 240.789 374.22 240.77C374.284 240.746 374.346 240.722 374.406 240.699L374.835 242.09L373.963 242.395C373.092 242.696 372.444 242.729 372.019 242.493C371.744 242.344 371.538 242.047 371.401 241.603L370.051 237.219L369.058 237.525Z" fill="#B7B7B7"/>
<path d="M377.632 233.174C377.666 233.164 377.695 233.157 377.718 233.155C377.745 233.147 377.8 233.132 377.884 233.111L378.471 235.019C378.35 235.042 378.243 235.065 378.15 235.089C378.057 235.113 377.982 235.134 377.926 235.151C377.177 235.382 376.749 235.781 376.642 236.348C376.583 236.666 376.641 237.111 376.817 237.681L377.865 241.085L375.99 241.663L373.797 234.542L375.574 233.994L375.956 235.236C376.097 234.672 376.248 234.271 376.408 234.031C376.666 233.632 377.074 233.346 377.632 233.174Z" fill="#B7B7B7"/>
<path d="M384.013 237.753C384.558 237.586 384.916 237.263 385.089 236.786C385.261 236.308 385.237 235.712 385.017 234.998C384.797 234.284 384.482 233.78 384.072 233.486C383.661 233.189 383.183 233.124 382.639 233.291C382.094 233.459 381.734 233.782 381.557 234.261C381.383 234.734 381.407 235.328 381.627 236.042C381.847 236.757 382.162 237.263 382.573 237.56C382.989 237.857 383.469 237.921 384.013 237.753ZM386.971 234.396C387.293 235.441 387.268 236.429 386.896 237.359C386.523 238.285 385.725 238.936 384.501 239.313C383.277 239.69 382.251 239.601 381.421 239.045C380.591 238.486 380.015 237.683 379.693 236.638C379.376 235.61 379.402 234.627 379.771 233.688C380.14 232.75 380.937 232.092 382.16 231.715C383.384 231.338 384.413 231.434 385.246 232.002C386.079 232.57 386.654 233.368 386.971 234.396Z" fill="#B7B7B7"/>
<path d="M391.304 236.945L389.442 237.519L386.475 227.889L388.337 227.316L391.304 236.945Z" fill="#B7B7B7"/>
</g>
<g filter="url(#filter4_i)">
<path d="M290.977 150.562L292.272 155.077L293.605 154.695C294.287 154.5 294.666 154.027 294.742 153.277C294.783 152.866 294.731 152.405 294.585 151.895C294.383 151.191 294.117 150.683 293.787 150.371C293.459 150.055 292.967 149.991 292.31 150.18L290.977 150.562ZM292.21 148.908C292.64 148.792 293.011 148.739 293.323 148.752C293.854 148.772 294.33 148.952 294.753 149.292C295.092 149.567 295.363 149.892 295.566 150.267C295.768 150.643 295.921 151.012 296.025 151.375C296.289 152.295 296.328 153.127 296.142 153.871C295.888 154.875 295.238 155.527 294.193 155.827L291.213 156.681L289.229 149.763L292.21 148.908Z" fill="#C60D1E"/>
<path d="M300.159 151.424C300.09 151.502 300.016 151.57 299.939 151.63C299.863 151.685 299.754 151.748 299.612 151.82L299.328 151.962C299.061 152.093 298.876 152.212 298.775 152.319C298.603 152.5 298.554 152.719 298.628 152.976C298.693 153.204 298.804 153.352 298.958 153.419C299.115 153.483 299.285 153.488 299.466 153.436C299.754 153.354 299.994 153.193 300.187 152.955C300.382 152.716 300.421 152.372 300.302 151.922L300.159 151.424ZM299.168 151.033C299.406 150.931 299.572 150.841 299.665 150.763C299.832 150.627 299.891 150.473 299.842 150.301C299.782 150.091 299.667 149.968 299.498 149.932C299.33 149.892 299.106 149.913 298.824 149.993C298.508 150.084 298.307 150.226 298.22 150.421C298.16 150.563 298.142 150.738 298.167 150.944L296.877 151.314C296.776 150.858 296.796 150.455 296.936 150.103C297.16 149.551 297.703 149.152 298.563 148.905C299.123 148.744 299.653 148.713 300.151 148.81C300.65 148.908 300.988 149.265 301.164 149.881L301.837 152.228C301.884 152.391 301.944 152.587 302.016 152.817C302.076 152.989 302.137 153.101 302.198 153.151C302.26 153.201 302.341 153.233 302.44 153.249L302.496 153.446L301.041 153.863C300.971 153.772 300.915 153.683 300.873 153.597C300.832 153.51 300.79 153.411 300.747 153.298C300.62 153.551 300.456 153.782 300.255 153.992C300.015 154.241 299.713 154.417 299.35 154.521C298.887 154.654 298.466 154.632 298.087 154.456C297.711 154.276 297.453 153.944 297.314 153.459C297.134 152.83 297.245 152.305 297.65 151.885C297.872 151.655 298.231 151.433 298.729 151.22L299.168 151.033Z" fill="#C60D1E"/>
<path d="M301.696 149.221L301.423 148.268L302.137 148.063L301.727 146.636L303.051 146.257L303.46 147.684L304.291 147.446L304.564 148.398L303.733 148.637L304.509 151.34C304.569 151.55 304.633 151.674 304.701 151.712C304.769 151.746 304.939 151.725 305.211 151.647C305.252 151.635 305.294 151.623 305.338 151.61C305.384 151.594 305.428 151.578 305.471 151.562L305.758 152.562L305.131 152.767C304.505 152.97 304.042 152.984 303.741 152.81C303.547 152.7 303.404 152.485 303.313 152.166L302.41 149.016L301.696 149.221Z" fill="#C60D1E"/>
<path d="M308.711 148.972C308.642 149.05 308.568 149.118 308.491 149.178C308.415 149.233 308.306 149.296 308.164 149.368L307.88 149.51C307.613 149.641 307.428 149.76 307.327 149.867C307.155 150.048 307.106 150.267 307.18 150.524C307.245 150.752 307.356 150.9 307.51 150.967C307.667 151.031 307.837 151.036 308.018 150.984C308.306 150.902 308.546 150.741 308.739 150.503C308.934 150.264 308.973 149.92 308.854 149.47L308.711 148.972ZM307.72 148.581C307.958 148.478 308.124 148.389 308.217 148.311C308.384 148.175 308.443 148.021 308.394 147.849C308.334 147.639 308.219 147.516 308.05 147.48C307.882 147.44 307.658 147.461 307.376 147.541C307.06 147.632 306.859 147.774 306.772 147.969C306.712 148.111 306.694 148.286 306.719 148.492L305.428 148.862C305.328 148.406 305.348 148.003 305.488 147.651C305.712 147.099 306.255 146.7 307.115 146.453C307.675 146.292 308.205 146.261 308.703 146.358C309.202 146.456 309.54 146.813 309.716 147.429L310.389 149.776C310.436 149.939 310.495 150.135 310.568 150.365C310.628 150.537 310.688 150.649 310.75 150.699C310.812 150.749 310.892 150.781 310.992 150.797L311.048 150.994L309.593 151.411C309.523 151.32 309.467 151.231 309.425 151.145C309.384 151.058 309.342 150.959 309.299 150.846C309.172 151.099 309.008 151.33 308.807 151.54C308.567 151.789 308.265 151.965 307.902 152.069C307.439 152.202 307.018 152.18 306.639 152.004C306.263 151.824 306.005 151.492 305.866 151.007C305.685 150.378 305.797 149.853 306.202 149.433C306.424 149.203 306.783 148.981 307.281 148.768L307.72 148.581Z" fill="#C60D1E"/>
<path d="M314.502 143.817L315.796 148.332L317.129 147.95C317.812 147.755 318.191 147.282 318.267 146.532C318.308 146.12 318.256 145.66 318.109 145.15C317.908 144.446 317.642 143.938 317.312 143.626C316.984 143.31 316.492 143.246 315.835 143.435L314.502 143.817ZM315.734 142.163C316.165 142.047 316.536 141.994 316.848 142.007C317.378 142.027 317.855 142.207 318.277 142.547C318.617 142.822 318.888 143.147 319.09 143.522C319.293 143.898 319.446 144.267 319.55 144.63C319.814 145.55 319.853 146.382 319.667 147.126C319.413 148.13 318.763 148.782 317.718 149.082L314.738 149.936L312.754 143.018L315.734 142.163Z" fill="#C60D1E"/>
<path d="M322.853 141.941C322.878 141.933 322.899 141.929 322.915 141.928C322.934 141.922 322.974 141.913 323.034 141.899L323.427 143.269C323.34 143.284 323.263 143.3 323.196 143.315C323.13 143.331 323.076 143.345 323.035 143.356C322.497 143.511 322.186 143.79 322.102 144.193C322.055 144.42 322.091 144.738 322.208 145.148L322.909 147.593L321.562 147.98L320.095 142.863L321.372 142.497L321.628 143.389C321.736 142.989 321.849 142.704 321.967 142.535C322.157 142.254 322.452 142.055 322.853 141.941Z" fill="#C60D1E"/>
<path d="M325.055 140.781L323.699 141.17L323.345 139.935L324.701 139.547L325.055 140.781ZM323.874 141.78L325.23 141.391L326.697 146.507L325.341 146.896L323.874 141.78Z" fill="#C60D1E"/>
<path d="M329.684 140.114L331.121 139.702L330.743 145.347L329.33 145.752L326.028 141.162L327.53 140.732L329.678 144.2L329.684 140.114Z" fill="#C60D1E"/>
<path d="M334.177 139.872C333.867 139.961 333.654 140.127 333.537 140.371C333.424 140.613 333.393 140.906 333.444 141.251L335.523 140.655C335.4 140.307 335.215 140.071 334.969 139.945C334.726 139.815 334.461 139.791 334.177 139.872ZM333.86 138.769C334.286 138.647 334.692 138.617 335.079 138.679C335.466 138.741 335.82 138.912 336.14 139.192C336.428 139.439 336.659 139.753 336.833 140.137C336.935 140.362 337.046 140.696 337.166 141.139L333.664 142.143C333.83 142.65 334.095 142.964 334.457 143.083C334.679 143.159 334.919 143.159 335.179 143.085C335.454 143.006 335.656 142.863 335.783 142.658C335.853 142.546 335.902 142.405 335.931 142.234L337.297 141.843C337.349 142.156 337.28 142.51 337.088 142.903C336.792 143.526 336.25 143.951 335.462 144.177C334.811 144.364 334.177 144.319 333.559 144.042C332.941 143.765 332.497 143.155 332.226 142.21C331.972 141.324 332.001 140.581 332.313 139.98C332.628 139.378 333.144 138.975 333.86 138.769Z" fill="#C60D1E"/>
<path d="M340.032 137.015C340.561 136.863 341.032 136.879 341.447 137.061C341.864 137.24 342.164 137.65 342.348 138.291L343.336 141.736L341.966 142.129L341.073 139.018C340.996 138.748 340.901 138.552 340.788 138.429C340.581 138.204 340.293 138.144 339.924 138.25C339.47 138.38 339.214 138.662 339.155 139.095C339.126 139.324 339.157 139.596 339.247 139.912L340.041 142.681L338.708 143.063L337.244 137.957L338.535 137.587L338.749 138.333C338.845 138.021 338.954 137.785 339.074 137.625C339.29 137.339 339.609 137.136 340.032 137.015Z" fill="#C60D1E"/>
<path d="M294.679 164.82C294.813 165.123 294.967 165.335 295.14 165.454C295.457 165.672 295.9 165.699 296.469 165.536C296.81 165.438 297.076 165.321 297.267 165.185C297.63 164.925 297.755 164.6 297.643 164.209C297.577 163.98 297.427 163.832 297.19 163.764C296.955 163.7 296.61 163.682 296.154 163.711L295.375 163.757C294.608 163.8 294.06 163.766 293.73 163.654C293.172 163.469 292.796 163.036 292.601 162.357C292.424 161.738 292.502 161.158 292.835 160.619C293.168 160.08 293.771 159.686 294.644 159.435C295.373 159.226 296.05 159.242 296.674 159.483C297.301 159.72 297.732 160.202 297.968 160.93L296.578 161.329C296.434 160.92 296.168 160.676 295.78 160.598C295.521 160.547 295.224 160.569 294.89 160.665C294.517 160.772 294.242 160.932 294.062 161.146C293.883 161.36 293.832 161.601 293.91 161.871C293.98 162.118 294.143 162.271 294.397 162.33C294.561 162.371 294.889 162.38 295.38 162.358L296.654 162.303C297.213 162.278 297.655 162.332 297.981 162.466C298.488 162.673 298.829 163.084 299.006 163.701C299.187 164.333 299.095 164.928 298.731 165.487C298.368 166.041 297.746 166.445 296.863 166.698C295.962 166.956 295.194 166.954 294.561 166.692C293.926 166.427 293.505 165.935 293.299 165.215L294.679 164.82Z" fill="#C60D1E"/>
<path d="M302.573 163.846C302.964 163.734 303.224 163.509 303.354 163.17C303.484 162.832 303.475 162.406 303.328 161.893C303.181 161.379 302.963 161.015 302.675 160.8C302.385 160.582 302.045 160.528 301.654 160.641C301.263 160.753 301.001 160.979 300.868 161.318C300.737 161.654 300.745 162.078 300.892 162.591C301.039 163.104 301.258 163.47 301.547 163.688C301.84 163.906 302.182 163.959 302.573 163.846ZM304.732 161.49C304.947 162.241 304.915 162.946 304.637 163.605C304.358 164.261 303.778 164.715 302.899 164.967C302.02 165.219 301.288 165.141 300.704 164.733C300.119 164.322 299.718 163.74 299.503 162.989C299.291 162.251 299.324 161.549 299.6 160.884C299.877 160.219 300.455 159.76 301.334 159.508C302.213 159.256 302.947 159.339 303.534 159.756C304.121 160.174 304.52 160.752 304.732 161.49Z" fill="#C60D1E"/>
<path d="M307.791 163.371L306.453 163.755L304.469 156.836L305.807 156.453L307.791 163.371Z" fill="#C60D1E"/>
<path d="M308.966 157.498L309.85 160.581C309.934 160.872 310.031 161.082 310.142 161.209C310.339 161.434 310.615 161.495 310.972 161.393C311.429 161.262 311.689 160.987 311.752 160.57C311.782 160.344 311.75 160.067 311.656 159.739L310.858 156.955L312.214 156.566L313.681 161.682L312.381 162.055L312.174 161.332C312.166 161.352 312.148 161.408 312.12 161.5C312.093 161.593 312.053 161.679 312.001 161.758C311.845 162.006 311.679 162.192 311.501 162.318C311.327 162.442 311.108 162.542 310.846 162.617C310.088 162.834 309.5 162.708 309.081 162.239C308.848 161.981 308.648 161.559 308.48 160.974L307.596 157.891L308.966 157.498Z" fill="#C60D1E"/>
<path d="M313.271 157.345L312.997 156.393L313.711 156.188L313.302 154.761L314.625 154.382L315.034 155.808L315.865 155.57L316.138 156.523L315.308 156.761L316.083 159.465C316.143 159.675 316.207 159.798 316.276 159.836C316.343 159.871 316.513 159.849 316.785 159.771C316.826 159.76 316.868 159.748 316.912 159.735C316.958 159.718 317.003 159.702 317.046 159.687L317.332 160.686L316.705 160.892C316.079 161.095 315.616 161.109 315.316 160.934C315.121 160.824 314.979 160.609 314.887 160.29L313.984 157.141L313.271 157.345Z" fill="#C60D1E"/>
<path d="M317.911 154.273L316.555 154.661L316.201 153.427L317.557 153.038L317.911 154.273ZM316.73 155.272L318.086 154.883L319.553 159.999L318.196 160.388L316.73 155.272Z" fill="#C60D1E"/>
<path d="M322.878 158.025C323.269 157.912 323.529 157.687 323.659 157.348C323.789 157.01 323.78 156.584 323.633 156.071C323.486 155.558 323.268 155.193 322.98 154.978C322.69 154.76 322.35 154.707 321.959 154.819C321.567 154.931 321.305 155.157 321.172 155.496C321.042 155.832 321.05 156.256 321.197 156.769C321.344 157.282 321.563 157.648 321.852 157.867C322.145 158.084 322.487 158.137 322.878 158.025ZM325.037 155.668C325.252 156.419 325.22 157.124 324.942 157.783C324.663 158.439 324.083 158.893 323.204 159.145C322.325 159.397 321.593 159.319 321.009 158.911C320.423 158.5 320.023 157.919 319.808 157.168C319.596 156.429 319.629 155.727 319.905 155.062C320.182 154.397 320.76 153.938 321.639 153.686C322.518 153.434 323.251 153.517 323.838 153.934C324.425 154.352 324.825 154.93 325.037 155.668Z" fill="#C60D1E"/>
<path d="M328.063 151.89C328.591 151.739 329.063 151.754 329.478 151.936C329.895 152.115 330.195 152.525 330.379 153.166L331.367 156.612L329.996 157.004L329.104 153.893C329.027 153.623 328.932 153.427 328.819 153.304C328.612 153.079 328.324 153.019 327.954 153.125C327.501 153.255 327.245 153.537 327.186 153.97C327.157 154.199 327.187 154.471 327.278 154.787L328.072 157.556L326.739 157.938L325.275 152.832L326.565 152.462L326.779 153.208C326.876 152.896 326.985 152.66 327.105 152.5C327.321 152.215 327.64 152.011 328.063 151.89Z" fill="#C60D1E"/>
<path d="M333.18 154.324C333.276 154.554 333.386 154.705 333.508 154.779C333.725 154.909 334.057 154.911 334.505 154.782C334.768 154.707 334.965 154.608 335.095 154.486C335.229 154.363 335.274 154.223 335.229 154.067C335.186 153.916 335.091 153.82 334.943 153.778C334.796 153.735 334.292 153.734 333.433 153.774C332.813 153.796 332.353 153.733 332.054 153.585C331.755 153.441 331.548 153.168 331.433 152.768C331.298 152.295 331.366 151.837 331.638 151.393C331.913 150.945 332.387 150.625 333.059 150.432C333.698 150.249 334.254 150.228 334.728 150.37C335.204 150.508 335.562 150.881 335.801 151.49L334.463 151.873C334.395 151.707 334.308 151.585 334.201 151.507C334.001 151.368 333.725 151.349 333.372 151.45C333.081 151.533 332.885 151.638 332.786 151.765C332.69 151.891 332.66 152.015 332.695 152.137C332.739 152.29 332.836 152.382 332.987 152.413C333.14 152.448 333.64 152.438 334.488 152.385C335.056 152.357 335.509 152.432 335.848 152.609C336.184 152.79 336.407 153.074 336.518 153.458C336.663 153.965 336.593 154.434 336.306 154.865C336.022 155.292 335.486 155.618 334.698 155.844C333.893 156.075 333.25 156.077 332.769 155.849C332.289 155.617 331.974 155.239 331.823 154.713L333.18 154.324Z" fill="#C60D1E"/>
</g>
</g>
<defs>
<filter id="filter0_f" x="-8" y="298" width="616.804" height="297.216" filterUnits="userSpaceOnUse" color-interpolation-filters="sRGB">
<feFlood flood-opacity="0" result="BackgroundImageFix"/>
<feBlend mode="normal" in="SourceGraphic" in2="BackgroundImageFix" result="shape"/>
<feGaussianBlur stdDeviation="35" result="effect1_foregroundBlur"/>
</filter>
<filter id="filter1_i" x="278.197" y="387.986" width="242.614" height="94.0554" filterUnits="userSpaceOnUse" color-interpolation-filters="sRGB">
<feFlood flood-opacity="0" result="BackgroundImageFix"/>
<feBlend mode="normal" in="SourceGraphic" in2="BackgroundImageFix" result="shape"/>
<feColorMatrix in="SourceAlpha" type="matrix" values="0 0 0 0 0 0 0 0 0 0 0 0 0 0 0 0 0 0 127 0" result="hardAlpha"/>
<feOffset dy="1"/>
<feGaussianBlur stdDeviation="0.5"/>
<feComposite in2="hardAlpha" operator="arithmetic" k2="-1" k3="1"/>
<feColorMatrix type="matrix" values="0 0 0 0 0 0 0 0 0 0 0 0 0 0 0 0 0 0 0.2 0"/>
<feBlend mode="normal" in2="shape" result="effect1_innerShadow"/>
</filter>
<filter id="filter2_i" x="281.083" y="330.526" width="120.533" height="46.7487" filterUnits="userSpaceOnUse" color-interpolation-filters="sRGB">
<feFlood flood-opacity="0" result="BackgroundImageFix"/>
<feBlend mode="normal" in="SourceGraphic" in2="BackgroundImageFix" result="shape"/>
<feColorMatrix in="SourceAlpha" type="matrix" values="0 0 0 0 0 0 0 0 0 0 0 0 0 0 0 0 0 0 127 0" result="hardAlpha"/>
<feOffset dy="1"/>
<feGaussianBlur stdDeviation="0.5"/>
<feComposite in2="hardAlpha" operator="arithmetic" k2="-1" k3="1"/>
<feColorMatrix type="matrix" values="0 0 0 0 0 0 0 0 0 0 0 0 0 0 0 0 0 0 0.2 0"/>
<feBlend mode="normal" in2="shape" result="effect1_innerShadow"/>
</filter>
<filter id="filter3_i" x="286.926" y="227.316" width="104.378" height="41.8692" filterUnits="userSpaceOnUse" color-interpolation-filters="sRGB">
<feFlood flood-opacity="0" result="BackgroundImageFix"/>
<feBlend mode="normal" in="SourceGraphic" in2="BackgroundImageFix" result="shape"/>
<feColorMatrix in="SourceAlpha" type="matrix" values="0 0 0 0 0 0 0 0 0 0 0 0 0 0 0 0 0 0 127 0" result="hardAlpha"/>
<feOffset dy="1"/>
<feGaussianBlur stdDeviation="0.5"/>
<feComposite in2="hardAlpha" operator="arithmetic" k2="-1" k3="1"/>
<feColorMatrix type="matrix" values="0 0 0 0 0 0 0 0 0 0 0 0 0 0 0 0 0 0 0.2 0"/>
<feBlend mode="normal" in2="shape" result="effect1_innerShadow"/>
</filter>
<filter id="filter4_i" x="289.229" y="136.912" width="54.1071" height="30.9782" filterUnits="userSpaceOnUse" color-interpolation-filters="sRGB">
<feFlood flood-opacity="0" result="BackgroundImageFix"/>
<feBlend mode="normal" in="SourceGraphic" in2="BackgroundImageFix" result="shape"/>
<feColorMatrix in="SourceAlpha" type="matrix" values="0 0 0 0 0 0 0 0 0 0 0 0 0 0 0 0 0 0 127 0" result="hardAlpha"/>
<feOffset dy="1"/>
<feGaussianBlur stdDeviation="0.5"/>
<feComposite in2="hardAlpha" operator="arithmetic" k2="-1" k3="1"/>
<feColorMatrix type="matrix" values="0 0 0 0 0 0 0 0 0 0 0 0 0 0 0 0 0 0 0.2 0"/>
<feBlend mode="normal" in2="shape" result="effect1_innerShadow"/>
</filter>
<clipPath id="clip0">
<rect width="600" height="600" fill="white"/>
</clipPath>
</defs>
</svg>
