<svg width="600" height="600" viewBox="0 0 600 600" fill="none" xmlns="http://www.w3.org/2000/svg">
<path d="M485 335L538.8 396.541L268.5 495L274 406.5L485 335Z" fill="white"/>
<path d="M114.5 323.5L62 384.335L268.5 495L274 406.5L114.5 323.5Z" fill="#F1F1F1"/>
<path d="M274 406.5L114.5 323.5L299.256 283.635L485 335L274 406.5Z" fill="#939393"/>
<path d="M425.5 272.5L485 335L274 406.5L280 318.5L425.5 272.5Z" fill="#EAEAEA"/>
<path d="M274 406.5L280 318.5L169.385 265.506L114.5 323.5L274 406.5Z" fill="#BDBDBD"/>
<path d="M280 318.5L169.384 265.506L298.311 236.517L425.5 272.5L280 318.5Z" fill="#939393"/>
<path d="M285 235L222.5 206.5L169.5 265.5L280 318.5L285 235Z" fill="#A7A7A7"/>
<path d="M366 210.5L425.5 272.5L280 318.5L285 235L366 210.5Z" fill="#CBCBCB"/>
<path d="M285 235L222.5 206.5L295.142 189.8L366 210.5L285 235Z" fill="#939393"/>
<path d="M222.5 206.5L291.359 134L285 235L222.5 206.5Z" fill="#B71726"/>
<path d="M366 210.5L291.359 134L285 235L366 210.5Z" fill="#E0091D"/>
</svg>
